<svg width="16" height="17" viewBox="0 0 16 17" fill="none" xmlns="http://www.w3.org/2000/svg">
<path fill-rule="evenodd" clip-rule="evenodd" d="M14.4071 7.875C14.1117 4.82325 11.6768 2.38834 8.625 2.09294V0.5H7.375V2.09294C4.32325 2.38834 1.88834 4.82325 1.59294 7.875H0V9.125H1.59294C1.88834 12.1768 4.32325 14.6117 7.375 14.9071V16.5H8.625V14.9071C11.6768 14.6117 14.1117 12.1767 14.4071 9.125H16V7.875H14.4071ZM13.1498 9.125C12.8648 11.4868 10.9868 13.3648 8.625 13.6498V12.0625H7.375V13.6498C5.01322 13.3648 3.13519 11.4868 2.85025 9.125H4.4375V7.875H2.85025C3.13519 5.51322 5.01322 3.63519 7.375 3.35025V4.9375H8.625V3.35025C10.9868 3.63516 12.8648 5.51319 13.1498 7.875H11.5625V9.125H13.1498ZM9 8.5C9 9.05229 8.55229 9.5 8 9.5C7.44772 9.5 7 9.05229 7 8.5C7 7.94772 7.44772 7.5 8 7.5C8.55229 7.5 9 7.94772 9 8.5Z" fill="black"/>
<mask id="mask0" mask-type="alpha" maskUnits="userSpaceOnUse" x="0" y="0" width="16" height="17">
<path fill-rule="evenodd" clip-rule="evenodd" d="M14.4071 7.875C14.1117 4.82325 11.6768 2.38834 8.625 2.09294V0.5H7.375V2.09294C4.32325 2.38834 1.88834 4.82325 1.59294 7.875H0V9.125H1.59294C1.88834 12.1768 4.32325 14.6117 7.375 14.9071V16.5H8.625V14.9071C11.6768 14.6117 14.1117 12.1767 14.4071 9.125H16V7.875H14.4071ZM13.1498 9.125C12.8648 11.4868 10.9868 13.3648 8.625 13.6498V12.0625H7.375V13.6498C5.01322 13.3648 3.13519 11.4868 2.85025 9.125H4.4375V7.875H2.85025C3.13519 5.51322 5.01322 3.63519 7.375 3.35025V4.9375H8.625V3.35025C10.9868 3.63516 12.8648 5.51319 13.1498 7.875H11.5625V9.125H13.1498ZM9 8.5C9 9.05229 8.55229 9.5 8 9.5C7.44772 9.5 7 9.05229 7 8.5C7 7.94772 7.44772 7.5 8 7.5C8.55229 7.5 9 7.94772 9 8.5Z" fill="white"/>
</mask>
<g mask="url(#mask0)">
<rect x="-0.800003" y="-0.299988" width="18" height="18" fill="#7F8FA4"/>
</g>
</svg>
