<?xml version="1.0" standalone="no"?>
<!DOCTYPE svg PUBLIC "-//W3C//DTD SVG 1.1//EN" "http://www.w3.org/Graphics/SVG/1.1/DTD/svg11.dtd" >
<svg xmlns="http://www.w3.org/2000/svg">
<metadata>Generated by IcoMoon</metadata>
<defs>
<font id="icomoon" horiz-adv-x="1024">
<font-face units-per-em="1024" ascent="960" descent="-64" />
<missing-glyph horiz-adv-x="1024" />
<glyph unicode="&#x20;" horiz-adv-x="512" d="" />
<glyph unicode="&#xe900;" glyph-name="add" d="M810 384.667h-256v-256h-84v256h-256v84h256v256h84v-256h256v-84z" />
<glyph unicode="&#xe901;" glyph-name="add_circle" d="M726 384.667v84h-172v172h-84v-172h-172v-84h172v-172h84v172h172zM512 852.667q176 0 301-125t125-301-125-301-301-125-301 125-125 301 125 301 301 125z" />
<glyph unicode="&#xe902;" glyph-name="clear, close" d="M810 664.667l-238-238 238-238-60-60-238 238-238-238-60 60 238 238-238 238 60 60 238-238 238 238z" />
<glyph unicode="&#xe903;" glyph-name="remove" d="M810 384.667h-596v84h596v-84z" />
<glyph unicode="&#xe904;" glyph-name="remove_circle, do_not_disturb_on" d="M726 384.667v84h-428v-84h428zM512 852.667q176 0 301-125t125-301-125-301-301-125-301 125-125 301 125 301 301 125z" />
<glyph unicode="&#xe905;" glyph-name="expand_less" d="M512 596.667l256-256-60-60-196 196-196-196-60 60z" />
<glyph unicode="&#xe906;" glyph-name="expand_more" d="M708 572.667l60-60-256-256-256 256 60 60 196-196z" />
<glyph unicode="&#xe907;" glyph-name="arrow_back_ios" d="M498 772.667l-346-346 346-346-76-76-422 422 422 422z" />
<glyph unicode="&#xe908;" glyph-name="arrow_forward_ios" d="M250 762.667l92 90 426-426-426-426-92 90 338 336z" />
<glyph unicode="&#xe909;" glyph-name="error" d="M554 384.667v256h-84v-256h84zM554 212.667v86h-84v-86h84zM512 852.667q176 0 301-125t125-301-125-301-301-125-301 125-125 301 125 301 301 125z" />
<glyph unicode="&#xe90a;" glyph-name="error_outline" d="M512 84.667q140 0 241 101t101 241-101 241-241 101-241-101-101-241 101-241 241-101zM512 852.667q176 0 301-125t125-301-125-301-301-125-301 125-125 301 125 301 301 125zM470 640.667h84v-256h-84v256zM470 298.667h84v-86h-84v86z" />
<glyph unicode="&#xe90b;" glyph-name="warning, report_problem" d="M554 340.667v172h-84v-172h84zM554 170.667v86h-84v-86h84zM42 42.667l470 810 470-810h-940z" />
<glyph unicode="&#xe90c;" glyph-name="loop, sync" d="M512 170.667v128l170-170-170-172v128q-140 0-241 101t-101 241q0 100 54 182l62-62q-30-54-30-120 0-106 75-181t181-75zM512 768.667q140 0 241-101t101-241q0-100-54-182l-62 62q30 54 30 120 0 106-75 181t-181 75v-128l-170 170 170 172v-128z" />
<glyph unicode="&#xe90d;" glyph-name="mic" d="M738 468.667h72q0-108-75-189t-181-97v-140h-84v140q-106 16-181 97t-75 189h72q0-94 67-155t159-61 159 61 67 155zM512 340.667q-52 0-90 38t-38 90v256q0 52 38 90t90 38 90-38 38-90v-256q0-52-38-90t-90-38z" />
<glyph unicode="&#xe90e;" glyph-name="mic_none" d="M738 468.667h72q0-108-75-189t-181-97v-140h-84v140q-106 16-181 97t-75 189h72q0-94 67-155t159-61 159 61 67 155zM460 728.667v-264q0-20 15-35t37-15q20 0 35 14t15 36l2 264q0 22-16 37t-36 15-36-15-16-37zM512 340.667q-52 0-90 38t-38 90v256q0 52 38 90t90 38 90-38 38-90v-256q0-52-38-90t-90-38z" />
<glyph unicode="&#xe90f;" glyph-name="mic_off" d="M182 810.667l714-714-54-54-178 178q-44-28-110-38v-140h-84v140q-106 16-181 97t-75 189h72q0-94 67-155t159-61q50 0 98 22l-70 70q-16-4-28-4-52 0-90 38t-38 90v32l-256 256zM640 462.667l-256 254v8q0 52 38 90t90 38 90-38 38-90v-262zM810 468.667q0-74-38-140l-52 54q18 40 18 86h72z" />
<glyph unicode="&#xe910;" glyph-name="replay" d="M512 724.667q142 0 242-100t100-240q0-142-101-242t-241-100-241 100-101 242h86q0-106 75-181t181-75 181 75 75 181-75 181-181 75v-172l-214 214 214 214v-172z" />
<glyph unicode="&#xe911;" glyph-name="videocam" d="M726 490.667l170 170v-468l-170 170v-150q0-18-13-30t-31-12h-512q-18 0-30 12t-12 30v428q0 18 12 30t30 12h512q18 0 31-12t13-30v-150z" />
<glyph unicode="&#xe912;" glyph-name="videocam_off" d="M140 852.667l756-756-54-54-136 136q-12-8-24-8h-512q-18 0-30 12t-12 30v428q0 18 12 30t30 12h32l-116 116zM896 660.667v-456l-478 478h264q18 0 31-12t13-30v-150z" />
<glyph unicode="&#xe913;" glyph-name="volume_down" d="M214 554.667h170l214 214v-684l-214 214h-170v256zM790 426.667q0-118-108-172v344q44-22 76-73t32-99z" />
<glyph unicode="&#xe914;" glyph-name="volume_mute" d="M298 554.667h172l212 214v-684l-212 214h-172v256z" />
<glyph unicode="&#xe915;" glyph-name="volume_off" d="M512 768.667v-180l-90 90zM182 810.667l714-714-54-54-88 88q-66-56-156-78v88q50 14 96 50l-182 182v-288l-214 214h-170v256h202l-202 202zM810 426.667q0 102-59 180t-153 106v88q130-28 214-133t84-241q0-94-44-178l-64 66q22 54 22 112zM704 426.667q0-18-2-26l-104 104v94q44-22 75-72t31-100z" />
<glyph unicode="&#xe916;" glyph-name="volume_up" d="M598 800.667q130-28 214-133t84-241-84-241-214-133v88q94 28 153 106t59 180-59 180-153 106v88zM704 426.667q0-120-106-172v344q44-22 75-72t31-100zM128 554.667h170l214 214v-684l-214 214h-170v256z" />
<glyph unicode="&#xe917;" glyph-name="chat" d="M768 596.667v86h-512v-86h512zM598 340.667v86h-342v-86h342zM256 554.667v-86h512v86h-512zM854 852.667q34 0 59-25t25-59v-512q0-34-25-60t-59-26h-598l-170-170v768q0 34 25 59t59 25h684z" />
<glyph unicode="&#xe918;" glyph-name="contact_phone" d="M762 340.667q-16 42-16 86t16 86h70l64 84-84 86q-36-28-71-78t-47-92-12-86 12-86 47-92 71-78l84 86-64 84h-70zM598 170.667v42q0 58-88 95t-168 37-168-37-88-95v-42h512zM342 682.667q-52 0-90-38t-38-90 38-90 90-38 90 38 38 90-38 90-90 38zM938 810.667q34 0 60-26t26-60v-596q0-34-26-60t-60-26h-852q-34 0-60 26t-26 60v596q0 34 26 60t60 26h852z" />
<glyph unicode="&#xe919;" glyph-name="expand_less1" d="M512 596.667l256-256-60-60-196 196-196-196-60 60z" />
<glyph unicode="&#xe91a;" glyph-name="expand_more1" d="M708 572.667l60-60-256-256-256 256 60 60 196-196z" />
<glyph unicode="&#xe91b;" glyph-name="arrow_back_ios1" d="M498 772.667l-346-346 346-346-76-76-422 422 422 422z" />
<glyph unicode="&#xe91c;" glyph-name="arrow_forward_ios1" d="M250 762.667l92 90 426-426-426-426-92 90 338 336z" />
<glyph unicode="&#xe91d;" glyph-name="star, grade" d="M512 202.667l-264-160 70 300-232 202 306 26 120 282 120-282 306-26-232-202 70-300z" />
<glyph unicode="&#xe91e;" glyph-name="star_outline" d="M512 280.667l160-96-42 182 142 124-188 16-72 172-72-172-188-16 142-124-42-182zM938 544.667l-232-202 70-300-264 160-264-160 70 300-232 202 306 26 120 282 120-282z" />
<glyph unicode="&#xe91f;" glyph-name="account_balance" d="M490 896.667l406-214v-86h-810v86zM682 512.667h128v-300h-128v300zM86 0.667v128h810v-128h-810zM426 512.667h128v-300h-128v300zM170 512.667h128v-300h-128v300z" />
<glyph unicode="&#xe920;" glyph-name="account_box" d="M256 212.667v-42h512v42q0 58-88 95t-168 37-168-37-88-95zM640 554.667q0 52-38 90t-90 38-90-38-38-90 38-90 90-38 90 38 38 90zM128 724.667q0 36 25 61t61 25h596q34 0 60-26t26-60v-596q0-34-26-60t-60-26h-596q-36 0-61 25t-25 61v596z" />
<glyph unicode="&#xe921;" glyph-name="account_circle" d="M512 118.667q68 0 143 40t113 98q-2 56-90 94t-166 38-166-37-90-95q38-58 113-98t143-40zM512 724.667q-52 0-90-38t-38-90 38-90 90-38 90 38 38 90-38 90-90 38zM512 852.667q176 0 301-125t125-301-125-301-301-125-301 125-125 301 125 301 301 125z" />
<glyph unicode="&#xe922;" glyph-name="assignment_ind" d="M768 128.667v60q0 58-88 95t-168 37-168-37-88-95v-60h512zM512 640.667q-52 0-90-38t-38-90 38-90 90-38 90 38 38 90-38 90-90 38zM512 810.667q-18 0-30-12t-12-30 12-31 30-13 30 13 12 31-12 30-30 12zM810 810.667q34 0 60-26t26-60v-596q0-34-26-60t-60-26h-596q-34 0-60 26t-26 60v596q0 34 26 60t60 26h178q14 38 46 62t74 24 74-24 46-62h178z" />
<glyph unicode="&#xe923;" glyph-name="cached" d="M256 426.667h128l-170-170-172 170h128q0 140 101 241t241 101q100 0 182-54l-62-62q-54 30-120 30-106 0-181-75t-75-181zM810 596.667l172-170h-128q0-140-101-241t-241-101q-100 0-182 54l62 62q56-30 120-30 106 0 181 75t75 181h-128z" />
<glyph unicode="&#xe924;" glyph-name="check_circle" d="M426 212.667l384 384-60 62-324-324-152 152-60-60zM512 852.667q176 0 301-125t125-301-125-301-301-125-301 125-125 301 125 301 301 125z" />
<glyph unicode="&#xe925;" glyph-name="done" d="M384 246.667l452 454 60-60-512-512-238 238 58 60z" />
<glyph unicode="&#xe926;" glyph-name="lock_open" d="M768 84.667v428h-512v-428h512zM768 596.667q34 0 60-25t26-59v-428q0-34-26-59t-60-25h-512q-34 0-60 25t-26 59v428q0 34 26 59t60 25h388v86q0 54-39 93t-93 39-93-39-39-93h-82q0 88 63 151t151 63 151-63 63-151v-86h42zM512 212.667q-34 0-60 26t-26 60 26 60 60 26 60-26 26-60-26-60-60-26z" />
<glyph unicode="&#xe927;" glyph-name="lock_outline" d="M768 84.667v428h-512v-428h512zM380 682.667v-86h264v86q0 54-39 93t-93 39-93-39-39-93zM768 596.667q34 0 60-25t26-59v-428q0-34-26-59t-60-25h-512q-34 0-60 25t-26 59v428q0 34 26 59t60 25h42v86q0 88 63 151t151 63 151-63 63-151v-86h42zM512 212.667q-34 0-60 26t-26 60 26 60 60 26 60-26 26-60-26-60-60-26z" />
<glyph unicode="&#xe928;" glyph-name="chevron-down" d="M225.835 524.502l256-256c16.683-16.683 43.691-16.683 60.331 0l256 256c16.683 16.683 16.683 43.691 0 60.331s-43.691 16.683-60.331 0l-225.835-225.835-225.835 225.835c-16.683 16.683-43.691 16.683-60.331 0s-16.683-43.691 0-60.331z" />
<glyph unicode="&#xe929;" glyph-name="delete" d="M512 768c-188.544 0-341.333-152.832-341.333-341.333s152.789-341.333 341.333-341.333 341.333 152.832 341.333 341.333-152.789 341.333-341.333 341.333zM670.165 328.832c16.683-16.683 16.683-43.648 0-60.331-8.32-8.32-19.243-12.501-30.165-12.501s-21.845 4.181-30.165 12.501l-97.835 97.835-97.835-97.835c-8.32-8.32-19.243-12.501-30.165-12.501s-21.845 4.181-30.165 12.501c-16.683 16.683-16.683 43.648 0 60.331l97.835 97.835-97.835 97.835c-16.683 16.683-16.683 43.648 0 60.331s43.648 16.683 60.331 0l97.835-97.835 97.835 97.835c16.683 16.683 43.648 16.683 60.331 0s16.683-43.648 0-60.331l-97.835-97.835 97.835-97.835z" />
<glyph unicode="&#xe92a;" glyph-name="tomb" d="M537.6 223.771h76.8v-225.371h-76.8v225.371zM870.4-1.372h-30.629v225.143h30.629c20.571 0 35.886 15.314 35.886 35.886s-15.314 35.886-35.886 35.886h-76.8v112.686h25.6c20.571 0 35.886 15.314 35.886 35.886s-15.314 35.886-35.886 35.886h-30.629v46.171h30.629c20.571 0 35.886 15.314 35.886 35.886s-15.314 35.886-35.886 35.886h-30.629c-15.314 133.029-117.714 235.429-250.971 250.971v71.771c0 20.571-15.314 35.886-35.886 35.886s-35.886-15.314-35.886-35.886v-71.771c-133.029-15.314-235.429-117.714-250.971-250.971h-30.629c-20.571 0-35.886-15.314-35.886-35.886s15.314-35.886 35.886-35.886h35.886v-46.4h-35.886c-20.571 0-35.886-15.314-35.886-35.886s15.314-35.886 35.886-35.886h25.6v-112.686h-76.8c-20.571 0-35.886-15.314-35.886-35.886s15.314-35.886 35.886-35.886h30.629v-225.371h-30.629c-20.571 0-35.886-15.314-35.886-35.886s15.314-35.886 35.886-35.886h732.114c20.571 0 35.886 15.314 35.886 35.886 0 20.8-15.314 36.343-30.629 36.343zM501.714 776.914c107.429 0 199.771-76.8 215.086-184.229h-430.171c20.571 102.171 107.657 184.229 215.086 184.229zM276.571 520.914h465.829v-46.171h-465.829v46.171zM609.371 402.971v-112.686h-56.229v112.686h56.229zM465.829 402.971v-112.686h-56.229v112.686h56.229zM343.086 402.971v-112.686h-56.457v112.686h56.457zM353.371-1.372h-76.8v225.143h76.8v-225.143zM476.114-1.372h-76.8v225.143h76.8v-225.143zM614.4-1.372h-76.8v225.143h76.8v-225.143zM675.886 402.971h56.229v-112.686h-56.229v112.686zM762.971-1.372h-76.8v225.143h76.8v-225.143z" />
<glyph unicode="&#xe92b;" glyph-name="cross-with-circle" d="M514.048 924.233c-270.336 0-489.472-219.136-489.472-487.424 0-270.336 219.136-489.472 489.472-489.472s489.472 219.136 489.472 489.472c-2.048 268.288-221.184 487.424-489.472 487.424zM733.184 260.681l-45.056-45.056-176.128 176.128-176.128-176.128-45.056 45.056 176.128 176.128-176.128 176.128 45.056 45.056 176.128-176.128 176.128 176.128 45.056-45.056-176.128-176.128 176.128-176.128z" />
<glyph unicode="&#xe92c;" glyph-name="check-circle" horiz-adv-x="878" d="M733.714 531.428c0 9.714-3.429 19.429-10.286 26.286l-52 51.429c-6.857 6.857-16 10.857-25.714 10.857s-18.857-4-25.714-10.857l-233.143-232.571-129.143 129.143c-6.857 6.857-16 10.857-25.714 10.857s-18.857-4-25.714-10.857l-52-51.429c-6.857-6.857-10.286-16.571-10.286-26.286s3.429-18.857 10.286-25.714l206.857-206.857c6.857-6.857 16.571-10.857 25.714-10.857 9.714 0 19.429 4 26.286 10.857l310.286 310.286c6.857 6.857 10.286 16 10.286 25.714zM877.714 438.857c0-242.286-196.571-438.857-438.857-438.857s-438.857 196.571-438.857 438.857 196.571 438.857 438.857 438.857 438.857-196.571 438.857-438.857z" />
<glyph unicode="&#xe92d;" glyph-name="minus" d="M496 848c-229.76 0-416-186.24-416-416s186.24-416 416-416c229.76 0 416 186.24 416 416s-186.24 416-416 416zM704 420c0-17.696-14.336-32-32-32h-352c-17.696 0-32 14.304-32 32v32c0 17.664 14.304 32 32 32h352c17.664 0 32-14.336 32-32v-32z" />
<glyph unicode="&#xe92e;" glyph-name="Insights" d="M948.218 869.971l36.848-73.163-82.308-41.454-36.848 73.163 82.308 41.454zM0 636.587h92.16v-81.92h-92.16v81.92zM73.556 867.736l82.308-41.454-36.848-73.163-82.308 41.454 36.848 73.163zM71.486 323.536l-36.848 73.163 86.881 43.757 36.848-73.163-86.881-43.757zM931.84 636.587h92.16v-81.92h-92.16v81.92zM950.301 326.508l-86.881 43.757 36.848 73.163 86.881-43.757-36.848-73.163zM512 938.667c-189.44 0-343.040-153.6-343.040-343.040v0 0c0-138.24 56.32-215.040 107.52-281.6v0c40.96-56.32 76.8-102.4 76.8-174.080v-107.52c0-61.44 56.32-117.76 122.88-117.76h76.8c66.56 0 117.76 56.32 117.76 117.76v107.52c0 71.68 35.84 117.76 76.8 174.080v0c51.2 66.56 107.52 143.36 107.52 281.6v0 0c0 189.44-153.6 343.040-343.040 343.040zM588.8 32.427c0-20.48-20.48-40.96-40.96-40.96h-71.68c-20.48 0-40.96 20.48-40.96 40.96v76.8h158.72v-76.8zM680.96 360.107v0c-35.84-51.2-76.8-97.28-87.040-168.96h-163.84c-15.36 71.68-51.2 122.88-87.040 168.96v0c-51.2 66.56-92.16 122.88-97.28 235.52 0 143.36 117.76 261.12 266.24 261.12 143.36 0 261.12-117.76 266.24-261.12-5.12-112.64-46.080-168.96-97.28-235.52z" />
<glyph unicode="&#xe92f;" glyph-name="low-risk" horiz-adv-x="683" d="M639.334 212.602l-82.194 82.193-155.851-155.857v799.729h-116.236v-803.279l-159.409 159.406-82.188-82.193 297.94-297.935 297.938 297.935z" />
<glyph unicode="&#xe930;" glyph-name="high-risk" horiz-adv-x="597" d="M298.667 938.667l-298.667-298.667 85.333-85.333 153.6 162.133v-802.133h119.467v802.133l153.6-162.133 85.333 85.333z" />
<glyph unicode="&#xe931;" glyph-name="caret-right" horiz-adv-x="601" d="M582.459 468.942l-460.33 460.33c-18.789 18.789-46.972 18.789-65.761 0l-46.972-37.578c-18.789-18.789-18.789-46.972 0-65.761l394.569-394.569-394.569-394.569c-18.789-18.789-18.789-46.972 0-65.761l37.578-37.578c18.789-18.789 46.972-18.789 65.761 0l460.33 460.33c28.183 18.789 28.183 56.367 9.394 75.156z" />
<glyph unicode="&#xe932;" glyph-name="edit" d="M993.28 785.067l-122.88 117.76c-25.6 25.6-71.68 25.6-102.4 0l-650.24-650.24c-20.48-20.48-35.84-46.080-46.080-76.8l-61.44-250.88 250.88 56.32c25.6 10.24 56.32 25.6 76.8 46.080l655.36 660.48c15.36 15.36 20.48 30.72 20.48 51.2-5.12 15.36-5.12 35.84-20.48 46.080zM117.76 37.547l25.6 102.4 81.92-81.92-107.52-20.48zM281.6 73.387l-138.24 133.12 593.92 588.8 138.24-138.24-593.92-583.68zM885.76 692.907l-107.52 107.52 46.080 46.080 107.52-107.52-46.080-46.080z" />
<glyph unicode="&#xe933;" glyph-name="medium-risk" d="M725.333 733.867l-85.333-85.333 162.133-153.6h-580.267l162.133 153.6-85.333 85.333-298.667-298.667 298.667-298.667 85.333 85.333-162.133 153.6h580.267l-162.133-153.6 85.333-85.333 298.667 298.667z" />
<glyph unicode="&#xe934;" glyph-name="trash" horiz-adv-x="865" d="M552.96 493.227h81.92v-419.84h-81.92v419.84zM742.4 795.307h-122.88v25.6c0 66.56-56.32 117.76-117.76 117.76h-138.24c-66.56 0-122.88-56.32-122.88-117.76v-25.6h-122.88c-61.44 0-117.76-56.32-117.76-122.88v-102.4h81.92v-537.6c0-66.56 56.32-117.76 117.76-117.76h465.92c66.56 0 117.76 56.32 117.76 117.76v542.72h81.92v102.4c0 61.44-56.32 117.76-122.88 117.76zM322.56 820.907c0 20.48 20.48 40.96 40.96 40.96h138.24c20.48 0 40.96-20.48 40.96-40.96v-25.6h-220.16v25.6zM706.56 32.427c0-20.48-20.48-40.96-40.96-40.96h-465.92c-20.48 0-40.96 20.48-40.96 40.96v542.72h542.72v-542.72zM783.36 651.947h-701.44v20.48c0 20.48 20.48 40.96 40.96 40.96h624.64c20.48 0 40.96-20.48 40.96-40.96v-20.48zM394.24 493.227h81.92v-419.84h-81.92v419.84zM230.4 493.227h81.92v-419.84h-81.92v419.84z" />
<glyph unicode="&#xe935;" glyph-name="add-customer" d="M808.96 641.707c0 163.84-133.12 296.96-296.96 296.96s-296.96-133.12-296.96-296.96c0-102.4 51.2-189.44 128-245.76-71.68-20.48-138.24-61.44-194.56-117.76-97.28-97.28-148.48-225.28-148.48-363.52h81.92c0 235.52 194.56 430.080 430.080 430.080 163.84 5.12 296.96 133.12 296.96 296.96zM512 426.667c-117.76 0-215.040 97.28-215.040 215.040s97.28 215.040 215.040 215.040c117.76 0 215.040-97.28 215.040-215.040s-97.28-215.040-215.040-215.040zM855.040 165.547v163.84h-76.8v-163.84h-168.96v-81.92h168.96v-168.96h76.8v168.96h168.96v81.92z" />
<glyph unicode="&#xe936;" glyph-name="blacklist" d="M275.2 484.267h44.8c19.2 0 32 12.8 32 32 6.4 25.6-12.8 38.4-32 38.4h-44.8c-19.2 0-32-12.8-32-32s12.8-38.4 32-38.4zM460.8 247.467c-12.8 12.8-38.4 12.8-51.2 0l-38.4-38.4-38.4 38.4c-12.8 12.8-38.4 12.8-51.2 0s-12.8-38.4 0-51.2l38.4-38.4-38.4-38.4c-12.8-12.8-12.8-38.4 0-51.2s38.4-12.8 51.2 0l38.4 38.4 38.4-38.4c12.8-12.8 38.4-12.8 51.2 0s12.8 38.4 0 51.2l-38.4 38.4 38.4 38.4c12.8 12.8 12.8 38.4 0 51.2zM275.2 625.067h44.8c19.2 0 32 12.8 32 32 6.4 25.6-12.8 38.4-32 38.4h-44.8c-19.2 0-32-12.8-32-32s12.8-38.4 32-38.4zM320 349.867c19.2 0 32 12.8 32 32s-12.8 32-32 32h-44.8c-19.2 6.4-32-12.8-32-32s12.8-32 32-32h44.8zM876.8 938.667h-742.4c-19.2 0-32-12.8-32-32v-953.6c0-19.2 12.8-32 32-32h742.4c19.2 0 32 12.8 32 32v953.6c6.4 19.2-12.8 32-32 32zM844.8 471.467v-492.8h-672v889.6h115.2v-32c0-19.2 12.8-32 32-32h371.2c19.2 0 32 12.8 32 32v32h115.2v-396.8zM422.4 663.467c0-19.2 12.8-32 32-32h275.2c19.2 0 32 12.8 32 32s-12.8 32-32 32h-268.8c-19.2 0-38.4-12.8-38.4-32zM736 420.267h-275.2c-19.2 0-32-12.8-32-32s12.8-32 32-32h275.2c19.2 0 32 12.8 32 32 6.4 12.8-12.8 32-32 32zM736 554.667h-275.2c-19.2 0-38.4-12.8-38.4-32s12.8-32 32-32h275.2c19.2 0 32 12.8 32 32 12.8 19.2-6.4 32-25.6 32z" />
<glyph unicode="&#xe937;" glyph-name="calendar" d="M614.4 196.267h70.4v-70.4h-70.4v70.4zM480 471.467h70.4v-70.4h-70.4v70.4zM480 330.667h70.4v-70.4h-70.4v70.4zM614.4 330.667h70.4v-70.4h-70.4v70.4zM755.2 471.467h70.4v-70.4h-70.4v70.4zM614.4 471.467h70.4v-70.4h-70.4v70.4zM755.2 330.667h70.4v-70.4h-70.4v70.4zM480 196.267h70.4v-70.4h-70.4v70.4zM339.2 471.467h70.4v-70.4h-70.4v70.4zM198.4 196.267h70.4v-70.4h-70.4v70.4zM851.2 797.867h-38.4v70.4h-70.4v-70.4h-460.8v70.4h-64v-70.4h-44.8c-57.6 0-102.4-44.8-102.4-102.4v-608c0-57.6 44.8-102.4 102.4-102.4h678.4c57.6 0 102.4 44.8 102.4 102.4v608c0 57.6-44.8 102.4-102.4 102.4zM883.2 87.467c0-19.2-12.8-32-32-32h-678.4c-19.2 0-32 12.8-32 32v454.4h748.8v-454.4zM198.4 330.667h70.4v-70.4h-70.4v70.4zM339.2 330.667h70.4v-70.4h-70.4v70.4zM198.4 471.467h70.4v-70.4h-70.4v70.4zM339.2 196.267h70.4v-70.4h-70.4v70.4z" />
<glyph unicode="&#xe938;" glyph-name="caret-down" horiz-adv-x="1761" d="M20.48 877.227c-40.96-40.96-40.96-102.4 0-143.36l778.24-778.24c0 0 20.48-20.48 40.96-20.48 40.96-20.48 81.92 0 102.4 20.48l40.96 40.96c0 0 0 0 0 0l737.28 737.28c40.96 40.96 40.96 102.4 0 143.36l-20.48 40.96c-40.96 40.96-102.4 40.96-143.36 0l-675.84-675.84-675.84 675.84c-40.96 20.48-102.4 20.48-143.36 0l-40.96-40.96z" />
<glyph unicode="&#xe939;" glyph-name="caret-left" horiz-adv-x="601" d="M544.881 929.273c-18.789 18.789-56.367 18.789-75.156 0l-460.33-460.33c-18.789-18.789-18.789-46.972 0-65.761l460.33-460.33c18.789-18.789 46.972-18.789 65.761 0l37.578 37.578c18.789 18.789 18.789 46.972 0 65.761l-385.174 385.174 394.569 394.569c18.789 18.789 18.789 46.972 0 65.761l-37.578 37.578z" />
<glyph unicode="&#xe93a;" glyph-name="change-password" d="M570.709 299.691c0 38.912-29.355 68.267-68.267 68.267s-68.267-29.355-68.267-68.267c0-24.576 14.336-43.691 34.133-58.709v-82.603c0-24.576 19.797-38.912 38.912-38.912 24.576 0 38.912 19.797 38.912 38.912v82.603c19.797 10.24 34.133 34.816 24.576 58.709zM785.067 558.422h-73.045v155.648c0 107.179-92.843 200.021-204.8 200.021s-204.8-88.064-204.8-200.021v-156.331h-68.267c-58.709 0-111.957-48.469-111.957-111.957v-389.803c0-58.709 48.469-111.957 111.957-111.957h550.912c58.709 0 111.957 48.469 111.957 111.957v390.485c0 58.027-48.469 111.957-111.957 111.957zM380.245 709.291c0 68.267 58.709 126.976 131.755 126.976 68.267 0 126.976-53.931 126.976-122.197v-161.109h-258.731v156.331zM823.979 51.2c0-19.797-19.797-38.912-38.912-38.912h-550.912c-19.797 0-38.912 19.797-38.912 38.912v389.803c0 7.509 2.731 14.336 7.509 21.163 7.509 10.24 19.797 18.432 32.085 18.432h550.229c19.797 0 38.912-19.797 38.912-38.912v-390.485z" />
<glyph unicode="&#xe93b;" glyph-name="check" horiz-adv-x="1388" d="M1301.695 938.667l-763.661-867.797-468.61 433.898-69.424-69.424 538.034-520.678 850.441 954.576z" />
<glyph unicode="&#xe93c;" glyph-name="cloud" horiz-adv-x="1191" d="M970.419 575.504c-5.953 202.419-172.651 363.163-381.023 363.163-89.302 0-178.605-35.721-250.047-95.256-59.535-53.581-101.209-125.023-113.116-208.372-59.535-11.907-113.116-41.674-148.837-83.349-47.628-53.581-77.395-119.070-77.395-190.512s23.814-136.93 71.442-190.512c47.628-53.581 113.116-83.349 178.605-95.256v0h5.953v89.302c-95.256 11.907-166.698 95.256-166.698 190.512 0 101.209 77.395 184.558 172.651 190.512l35.721 5.953 5.953 35.721c11.907 142.884 136.93 256 279.814 256 154.791 0 285.767-125.023 285.767-285.767v-83.349h65.488c83.349 0 154.791-71.442 154.791-154.791s-71.442-154.791-154.791-154.791h-11.907v-95.256h11.907c136.93 0 250.047 113.116 250.047 250.047 5.953 136.93-89.302 238.14-214.326 256zM642.977 87.318v464.372h-95.256v-464.372l-136.93 142.884-65.488-65.488 250.047-250.047 250.047 250.047-65.488 65.488z" />
<glyph unicode="&#xe93d;" glyph-name="configurations" d="M675.84 426.667l5.12 5.12c25.6-10.24 56.32-15.36 81.92-15.36 143.36 0 261.12 117.76 261.12 261.12 0 35.84-10.24 76.8-25.6 107.52l-25.6 51.2-143.36-143.36c-5.12-5.12-15.36-10.24-25.6-10.24s-20.48 5.12-25.6 10.24c-5.12 10.24-10.24 15.36-10.24 25.6s5.12 20.48 10.24 25.6l143.36 143.36-51.2 25.6c-30.72 15.36-66.56 25.6-107.52 25.6-143.36 0-261.12-117.76-261.12-261.12 0-30.72 5.12-56.32 15.36-81.92l-56.32-61.44-148.48 148.48v133.12l-204.8 122.88-107.52-107.52 122.88-204.8h133.12l148.48-148.48-368.64-368.64c-20.48-20.48-35.84-51.2-35.84-81.92s10.24-61.44 35.84-81.92c20.48-20.48 51.2-35.84 81.92-35.84s61.44 10.24 81.92 35.84l312.32 312.32 312.32-312.32c20.48-20.48 51.2-35.84 81.92-35.84s61.44 10.24 81.92 35.84c20.48 20.48 35.84 51.2 35.84 81.92s-10.24 61.44-35.84 81.92l-312.32 317.44zM230.4 708.267h-61.44l-66.56 107.52 20.48 20.48 112.64-66.56v-61.44zM931.84 6.827c-5.12-5.12-15.36-10.24-25.6-10.24s-20.48 5.12-25.6 10.24l-312.32 312.32 51.2 51.2 312.32-312.32c5.12-5.12 10.24-15.36 10.24-25.6s0-20.48-10.24-25.6z" />
<glyph unicode="&#xe93e;" glyph-name="customer-profil" d="M609.28 442.027c0 15.36 0 30.72-5.12 46.080 15.36 0 25.6-5.12 40.96-5.12 97.28 0 184.32-46.080 240.64-117.76l56.32 61.44c-40.96 46.080-92.16 87.040-153.6 112.64 51.2 40.96 81.92 102.4 81.92 174.080-5.12 122.88-102.4 225.28-230.4 225.28s-225.28-102.4-225.28-225.28c0-15.36 0-30.72 5.12-46.080-10.24 0-25.6 0-35.84 0-122.88 0-225.28-102.4-225.28-225.28 0-71.68 30.72-133.12 81.92-174.080-143.36-56.32-240.64-194.56-240.64-353.28h81.92c0 168.96 133.12 302.080 302.080 302.080 122.88 0 225.28 102.4 225.28 225.28zM384 298.667c-81.92 0-143.36 66.56-143.36 143.36s66.56 143.36 143.36 143.36c81.92 0 143.36-66.56 143.36-143.36s-66.56-143.36-143.36-143.36zM496.64 713.387c0 81.92 66.56 143.36 143.36 143.36s143.36-66.56 143.36-143.36c0-81.92-66.56-143.36-143.36-143.36s-143.36 61.44-143.36 143.36zM962.56 339.627l-276.48-312.32-158.72 153.6-51.2-61.44 215.040-204.8 332.8 368.64z" />
<glyph unicode="&#xe93f;" glyph-name="documentation1" horiz-adv-x="825" d="M584.282 619.42h156.612l-216.847 216.847v-156.612c-6.024-24.094 24.094-60.235 60.235-60.235zM578.259 697.726l18.071-18.071h-12.047c0 0-6.024 6.024-6.024 6.024v12.047zM536.094 926.62h-385.506c-78.306 0-144.565-66.259-144.565-144.565v-728.847c0-78.306 66.259-144.565 144.565-144.565h524.047c78.306 0 144.565 66.259 144.565 144.565v584.282l-283.106 289.129zM764.988 53.208c0-48.188-42.165-84.329-84.329-84.329h-524.047c-48.188 0-84.329 42.165-84.329 84.329v728.847c0 48.188 42.165 84.329 84.329 84.329h361.412l246.965-246.965v-566.212z" />
<glyph unicode="&#xe940;" glyph-name="eforms" d="M660.48 431.787c0 20.48-20.48 40.96-40.96 40.96h-373.76c-20.48 0-40.96-20.48-40.96-40.96s20.48-40.96 40.96-40.96h368.64c25.6 0 46.080 15.36 46.080 40.96zM983.040 293.547c-15.36 15.36-40.96 15.36-56.32-5.12l-225.28-250.88-112.64 107.52c-15.36 15.36-40.96 15.36-56.32 0s-15.36-40.96 0-56.32l143.36-138.24c5.12-5.12 15.36-10.24 30.72-10.24v0c10.24 0 20.48 5.12 30.72 15.36l256 281.6c5.12 15.36 5.12 40.96-10.24 56.32zM399.36-3.413h-317.44v860.16h686.080v-460.8c0-20.48 20.48-40.96 40.96-40.96s40.96 20.48 40.96 40.96v501.76c0 20.48-20.48 40.96-40.96 40.96h-768c-20.48 0-40.96-20.48-40.96-40.96v-942.080c0-20.48 20.48-40.96 40.96-40.96h358.4c20.48 0 40.96 20.48 40.96 40.96s-20.48 40.96-40.96 40.96zM245.76 252.587c-20.48 0-40.96-20.48-40.96-40.96 0-25.6 20.48-40.96 40.96-40.96h112.64c20.48 0 40.96 20.48 40.96 40.96s-20.48 40.96-40.96 40.96h-112.64zM619.52 698.027h-373.76c-20.48 0-40.96-20.48-40.96-40.96s20.48-40.96 40.96-40.96h368.64c20.48 0 40.96 20.48 40.96 40.96s-15.36 40.96-35.84 40.96z" />
<glyph unicode="&#xe941;" glyph-name="enforcement" d="M595.2 125.867h-198.4c-19.2 0-32-12.8-32-32s12.8-32 32-32h198.4c19.2 0 32 12.8 32 32s-19.2 32-32 32zM992 637.867l-25.6 108.8c0 12.8-6.4 19.2-19.2 19.2l-441.6 172.8c-6.4 0-12.8 0-19.2 0l-441.6-166.4c-12.8-6.4-19.2-12.8-19.2-25.6l-25.6-108.8c0-6.4 0-19.2 6.4-25.6l121.6-134.4c0 0 0 0 0 0v-38.4h-38.4c-38.4 0-70.4-32-70.4-70.4v-70.4c0-51.2 38.4-89.6 89.6-89.6h19.2v-25.6c0-147.2 121.6-268.8 262.4-268.8h204.8c147.2 0 268.8 121.6 268.8 268.8v25.6h12.8c51.2 0 89.6 38.4 89.6 89.6v76.8c0 38.4-32 70.4-70.4 70.4h-38.4v32c0 0 0 0 0 0l121.6 134.4c12.8 12.8 12.8 19.2 12.8 25.6zM806.4 183.467c0-115.2-89.6-204.8-204.8-204.8h-211.2c-115.2 0-204.8 89.6-204.8 204.8v198.4c19.2-12.8 38.4-19.2 57.6-32 51.2-25.6 108.8-38.4 172.8-44.8l-12.8-108.8c0-6.4 0-19.2 6.4-25.6s12.8-12.8 19.2-12.8h121.6c12.8 6.4 25.6 12.8 25.6 19.2 6.4 6.4 6.4 12.8 6.4 25.6l-6.4 102.4c64 6.4 121.6 25.6 172.8 44.8 19.2 12.8 38.4 19.2 57.6 32v-198.4zM467.2 228.267l6.4 70.4c6.4 0 12.8 0 19.2 0s12.8 0 19.2 0l6.4-76.8h-51.2zM819.2 516.267h-646.4l-108.8 128 19.2 76.8 409.6 153.6 416-153.6 19.2-76.8-108.8-128zM576 797.867c-6.4 0-57.6 12.8-83.2 12.8-19.2 0-70.4-12.8-83.2-12.8s-25.6-12.8-25.6-32v-147.2c0-12.8 6.4-25.6 19.2-25.6l76.8-32c6.4 0 6.4 0 12.8 0s6.4 0 12.8 0l76.8 32c12.8 6.4 19.2 12.8 19.2 25.6v147.2c0 19.2-6.4 32-25.6 32zM544 637.867l-51.2-19.2-44.8 19.2v108.8c19.2 0 38.4 6.4 44.8 6.4s32-6.4 51.2-6.4v-108.8z" />
<glyph unicode="&#xe942;" glyph-name="export" horiz-adv-x="1191" d="M642.977 87.318v464.372h-95.256v-464.372l-136.93 142.884-65.488-65.488 250.047-250.047 250.047 250.047-65.488 65.488zM970.419 575.504c-5.953 202.419-172.651 363.163-381.023 363.163-89.302 0-178.605-35.721-250.047-95.256-59.535-53.581-101.209-125.023-113.116-208.372-59.535-11.907-113.116-41.674-148.837-83.349-47.628-53.581-77.395-119.070-77.395-190.512s23.814-136.93 71.442-190.512c47.628-53.581 113.116-83.349 178.605-95.256v0h5.953v89.302c-95.256 11.907-166.698 95.256-166.698 190.512 0 101.209 77.395 184.558 172.651 190.512l35.721 5.953 5.953 35.721c11.907 142.884 136.93 256 279.814 256 154.791 0 285.767-125.023 285.767-285.767v-83.349h65.488c83.349 0 154.791-71.442 154.791-154.791s-71.442-154.791-154.791-154.791h-11.907v-95.256h11.907c136.93 0 250.047 113.116 250.047 250.047 5.953 136.93-89.302 238.14-214.326 256z" />
<glyph unicode="&#xe943;" glyph-name="eye-view" horiz-adv-x="1463" d="M841.143 433.981c0-60.594-49.121-109.714-109.714-109.714s-109.714 49.121-109.714 109.714c0 60.594 49.121 109.714 109.714 109.714s109.714-49.121 109.714-109.714zM1440.914 463.238v0 0 0c0 0-14.629 21.943-21.943 36.571v0c-36.571 43.886-124.343 160.914-241.371 256-146.286 124.343-299.886 182.857-446.171 182.857s-299.886-58.514-446.171-182.857c-117.029-95.086-204.8-212.114-241.371-256-7.314-7.314-21.943-29.257-21.943-36.571l-21.943-29.257 21.943-29.257c0 0 14.629-21.943 21.943-36.571v0c36.571-43.886 124.343-160.914 241.371-256 146.286-124.343 299.886-182.857 446.171-182.857s299.886 58.514 446.171 182.857c117.029 95.086 204.8 204.8 241.371 256v0c7.314 7.314 21.943 29.257 21.943 36.571l21.943 29.257-21.943 29.257zM731.429 39.010c-190.171 0-394.971 131.657-592.457 387.657 197.486 263.314 402.286 394.971 592.457 394.971s394.971-131.657 592.457-387.657c-197.486-263.314-402.286-394.971-592.457-394.971zM731.429 755.81c-182.857 0-329.143-146.286-329.143-329.143s146.286-329.143 329.143-329.143 329.143 146.286 329.143 329.143-146.286 329.143-329.143 329.143zM731.429 221.867c-117.029 0-212.114 95.086-212.114 212.114s95.086 212.114 212.114 212.114c117.029 0 212.114-95.086 212.114-212.114s-95.086-212.114-212.114-212.114z" />
<glyph unicode="&#xe944;" glyph-name="graph" d="M921.6 714.667h-96c-57.6 0-102.4-44.8-102.4-102.4v-601.6c0-57.6 44.8-102.4 102.4-102.4h96c57.6 0 102.4 44.8 102.4 102.4v601.6c0 57.6-44.8 102.4-102.4 102.4zM947.2 17.067c0-12.8-6.4-19.2-19.2-19.2h-96c-12.8 0-19.2 6.4-19.2 19.2v595.2c0 12.8 6.4 19.2 19.2 19.2h96c12.8 0 19.2-6.4 19.2-19.2v-595.2zM563.2 938.667h-96c-57.6 0-102.4-44.8-102.4-102.4v-825.6c0-57.6 44.8-102.4 102.4-102.4h96c57.6 0 102.4 44.8 102.4 102.4v825.6c-6.4 57.6-51.2 102.4-102.4 102.4zM582.4 17.067c0-12.8-6.4-19.2-19.2-19.2h-96c-12.8 0-19.2 6.4-19.2 19.2v819.2c0 12.8 6.4 19.2 19.2 19.2h96c12.8 0 19.2-6.4 19.2-19.2v-819.2zM198.4 407.467h-96c-57.6 0-102.4-44.8-102.4-96v-294.4c0-57.6 44.8-102.4 102.4-102.4h96c57.6 0 102.4 44.8 102.4 102.4v294.4c-6.4 51.2-51.2 96-102.4 96zM217.6 17.067c0-12.8-6.4-19.2-19.2-19.2h-96c-12.8 0-19.2 6.4-19.2 19.2v294.4c0 12.8 6.4 19.2 19.2 19.2h96c12.8 0 19.2-6.4 19.2-19.2v-294.4z" />
<glyph unicode="&#xe945;" glyph-name="id-card" horiz-adv-x="1452" d="M530.156 437.561c21.787 29.050 36.312 65.362 36.312 101.674 0 87.149-72.624 152.511-152.511 152.511s-152.511-72.624-152.511-152.511c0-36.312 14.525-72.624 36.312-101.674-72.624-43.574-123.461-123.461-123.461-210.61v-29.050c0-21.787 21.787-43.574 43.574-43.574h399.433c21.787 0 43.574 21.787 43.574 43.574v29.050c-7.262 94.411-58.099 174.298-130.723 210.61zM413.957 473.873c-36.312 0-72.624 29.050-72.624 72.624s29.050 72.624 72.624 72.624c36.312 0 72.624-29.050 72.624-72.624s-36.312-72.624-72.624-72.624zM784.34 553.759h167.035c21.787 0 43.574 21.787 43.574 43.574s-21.787 43.574-43.574 43.574h-167.035c-21.787 0-43.574-21.787-43.574-43.574s21.787-43.574 43.574-43.574zM1241.872 299.575h-457.532c-21.787 0-43.574-21.787-43.574-43.574s21.787-43.574 43.574-43.574h457.532c21.787 0 43.574 21.787 43.574 43.574s-21.787 43.574-43.574 43.574zM1241.872 473.873h-457.532c-21.787 0-43.574-21.787-43.574-43.574s21.787-43.574 43.574-43.574h457.532c21.787 0 43.574 21.787 43.574 43.574s-21.787 43.574-43.574 43.574zM1321.759 938.667h-1191.035c-72.624 0-130.723-58.099-130.723-130.723v-762.553c0-72.624 58.099-130.723 130.723-130.723h1198.298c72.624 0 130.723 58.099 130.723 130.723v762.553c-7.262 72.624-65.362 130.723-137.986 130.723zM1365.333 45.39c0-21.787-21.787-43.574-43.574-43.574h-1191.035c-21.787 0-43.574 21.787-43.574 43.574v762.553c0 21.787 21.787 43.574 43.574 43.574h1198.298c21.787 0 43.574-21.787 43.574-43.574v-762.553z" />
<glyph unicode="&#xe946;" glyph-name="loading" d="M512 938.667c-34.133 0-59.733-25.6-59.733-68.267v-187.733c0-34.133 25.6-68.267 68.267-68.267s59.733 34.133 59.733 68.267v187.733c0 42.667-34.133 68.267-68.267 68.267zM324.267 426.667c0 34.133-25.6 68.267-68.267 68.267h-187.733c-42.667-8.533-68.267-34.133-68.267-68.267s25.6-68.267 68.267-68.267h187.733c34.133 0 68.267 34.133 68.267 68.267zM964.267 486.4h-196.267c-34.133 0-59.733-25.6-59.733-59.733s25.6-68.267 59.733-68.267h196.267c34.133 0 59.733 34.133 59.733 68.267s-25.6 59.733-59.733 59.733zM512 230.4c-34.133 0-59.733-25.6-59.733-59.733v-196.267c0-34.133 25.6-59.733 59.733-59.733s68.267 25.6 68.267 68.267v187.733c0 34.133-34.133 59.733-68.267 59.733zM776.533 256c-25.6 25.6-68.267 25.6-93.867 0s-25.6-68.267 0-93.867l136.533-136.533c25.6-25.6 68.267-25.6 93.867 0s25.6 68.267 0 93.867l-136.533 136.533zM196.267 827.734c-25.6 25.6-59.733 25.6-85.333 0s-25.6-59.733 0-85.333l136.533-136.533c25.6-25.6 68.267-25.6 93.867 0s25.6 68.267 0 93.867l-145.067 128zM776.533 605.867l136.533 136.533c25.6 25.6 25.6 59.733 0 85.333s-68.267 25.6-93.867 0l-136.533-136.533c-25.6-25.6-25.6-59.733 0-85.333s68.267-25.6 93.867 0zM247.467 256l-136.533-136.533c-25.6-25.6-25.6-68.267 0-93.867s59.733-25.6 85.333 0l136.533 136.533c25.6 25.6 25.6 68.267 0 93.867s-59.733 25.6-85.333 0z" />
<glyph unicode="&#xe947;" glyph-name="loading-spinner" d="M499.2 938.667h25.6c28.277 0 51.2-22.923 51.2-51.2v-217.6c0-28.277-22.923-51.2-51.2-51.2h-25.6c-28.277 0-51.2 22.923-51.2 51.2v217.6c0 28.277 22.923 51.2 51.2 51.2zM51.2 490.667h217.6c28.277 0 51.2-22.923 51.2-51.2v-25.6c0-28.277-22.923-51.2-51.2-51.2h-217.6c-28.277 0-51.2 22.923-51.2 51.2v25.6c0 28.277 22.923 51.2 51.2 51.2zM755.2 490.667h217.6c28.277 0 51.2-22.923 51.2-51.2v-25.6c0-28.277-22.923-51.2-51.2-51.2h-217.6c-28.277 0-51.2 22.923-51.2 51.2v25.6c0 28.277 22.923 51.2 51.2 51.2zM499.2 234.667h25.6c28.277 0 51.2-22.923 51.2-51.2v-217.6c0-28.277-22.923-51.2-51.2-51.2h-25.6c-28.277 0-51.2 22.923-51.2 51.2v217.6c0 28.277 22.923 51.2 51.2 51.2zM676.204 171.952c-19.994 19.999-19.994 52.413 0 72.407l18.104 18.104c19.994 19.994 52.408 19.994 72.407 0l153.866-153.866c19.994-19.994 19.994-52.413 0-72.407l-18.104-18.104c-19.994-19.994-52.413-19.994-72.407 0l-153.866 153.866zM100.204 747.954c-19.995 19.995-19.995 52.413 0 72.408l18.102 18.102c19.995 19.995 52.413 19.995 72.408 0l153.867-153.866c19.995-19.995 19.995-52.413 0-72.408l-18.102-18.102c-19.995-19.995-52.413-19.995-72.408 0l-153.866 153.867zM830.070 838.463c19.999 19.995 52.413 19.995 72.407 0l18.104-18.102c19.994-19.995 19.994-52.413 0-72.408l-153.866-153.867c-19.994-19.995-52.413-19.995-72.407 0l-18.104 18.102c-19.994 19.995-19.994 52.413 0 72.408l153.866 153.866zM254.071 262.463c19.995 19.994 52.413 19.994 72.408 0l18.102-18.104c19.995-19.994 19.995-52.408 0-72.407l-153.866-153.866c-19.995-19.994-52.413-19.994-72.408 0l-18.102 18.104c-19.995 19.994-19.995 52.413 0 72.407l153.867 153.866z" />
<glyph unicode="&#xe948;" glyph-name="tick-with-circle" d="M514.048 922.185c-268.288 0-487.424-219.136-487.424-487.424 0-270.336 219.136-489.472 489.472-489.472 268.288 0 487.424 219.136 487.424 489.472 0 268.288-219.136 487.424-489.472 487.424zM409.6 197.193l-184.32 184.32 45.056 47.104 139.264-139.264 348.16 350.208 47.104-47.104-395.264-395.264z" />
<glyph unicode="&#xe94f;" glyph-name="person" d="M876.8 279.467c-57.6 57.6-121.6 96-192 121.6 76.8 51.2 128 140.8 128 243.2-6.4 160-134.4 294.4-300.8 294.4s-294.4-134.4-294.4-294.4c0-102.4 51.2-192 128-243.2-70.4-25.6-140.8-64-192-121.6-102.4-102.4-153.6-230.4-153.6-364.8h83.2c0 236.8 192 435.2 435.2 435.2s435.2-192 435.2-435.2h70.4c0 134.4-51.2 262.4-147.2 364.8zM512 426.667c-121.6 0-217.6 96-217.6 217.6s96 211.2 217.6 211.2 217.6-96 217.6-217.6-96-211.2-217.6-211.2z" />
<glyph unicode="&#xe950;" glyph-name="plus" d="M885.76 564.907h-235.52v235.52c0 76.8-61.44 138.24-138.24 138.24s-138.24-61.44-138.24-138.24v-235.52h-235.52c-76.8 0-138.24-61.44-138.24-138.24s61.44-138.24 138.24-138.24h235.52v-235.52c0-76.8 61.44-138.24 138.24-138.24s138.24 61.44 138.24 138.24v235.52h235.52c76.8 0 138.24 61.44 138.24 138.24s-61.44 138.24-138.24 138.24zM885.76 334.507h-281.6v-281.6c0-51.2-40.96-92.16-92.16-92.16s-92.16 40.96-92.16 92.16v281.6h-281.6c-51.2 0-92.16 40.96-92.16 92.16s40.96 92.16 92.16 92.16h281.6v281.6c0 51.2 40.96 92.16 92.16 92.16s92.16-40.96 92.16-92.16v-281.6h281.6c51.2 0 92.16-40.96 92.16-92.16s-40.96-92.16-92.16-92.16z" />
<glyph unicode="&#xe951;" glyph-name="review" horiz-adv-x="975" d="M833.829 543.696l-287.695 4.876 107.276 370.59-507.124-604.648 297.448-4.876-73.143-370.59 463.238 604.648zM307.2 387.657l170.667 204.8-34.133-121.905h238.933l-170.667-224.305 29.257 141.41h-234.057z" />
<glyph unicode="&#xe952;" glyph-name="sanction" d="M256 477.867v-102.4h512v102.4h-224zM876.8 791.467c-102.4 96-230.4 147.2-364.8 147.2s-262.4-51.2-364.8-147.2c-96-102.4-147.2-230.4-147.2-364.8s51.2-262.4 147.2-364.8c102.4-96 230.4-147.2 364.8-147.2s262.4 51.2 364.8 147.2c96 102.4 147.2 230.4 147.2 364.8s-51.2 262.4-147.2 364.8zM512-8.533c-236.8 0-435.2 192-435.2 435.2s192 435.2 435.2 435.2 435.2-192 435.2-435.2-198.4-435.2-435.2-435.2z" />
<glyph unicode="&#xe953;" glyph-name="search" d="M1003.52 22.187l-199.68 199.68c133.12 174.080 117.76 424.96-40.96 583.68-174.080 179.2-455.68 179.2-629.76 0-174.080-174.080-174.080-455.68 0-634.88 158.72-158.72 409.6-174.080 583.68-40.96l199.68-199.68c25.6-25.6 66.56-25.6 92.16 0 20.48 30.72 20.48 66.56-5.12 92.16zM670.72 267.947c-122.88-122.88-327.68-122.88-450.56 0s-122.88 327.68 0 450.56 327.68 122.88 450.56 0c128-128 128-327.68 0-450.56z" />
<glyph unicode="&#xe954;" glyph-name="setting" d="M512 657.067c-128 0-230.4-102.4-230.4-230.4s102.4-230.4 230.4-230.4c128 0 230.4 102.4 230.4 230.4s-102.4 230.4-230.4 230.4zM512 273.067c-81.92 0-153.6 66.56-153.6 153.6 0 81.92 66.56 153.6 153.6 153.6 81.92 0 153.6-66.56 153.6-153.6 0-81.92-71.68-153.6-153.6-153.6zM1024 360.107v133.12l-138.24 35.84c-10.24 30.72-20.48 61.44-35.84 87.040l71.68 122.88-97.28 97.28-122.88-71.68c-25.6 15.36-56.32 30.72-87.040 35.84l-35.84 138.24h-133.12l-35.84-138.24c-30.72-5.12-61.44-20.48-92.16-35.84l-117.76 71.68-97.28-97.28 71.68-122.88c-15.36-25.6-30.72-56.32-35.84-87.040l-138.24-35.84v-133.12l138.24-35.84c10.24-30.72 20.48-61.44 35.84-87.040l-71.68-122.88 97.28-97.28 122.88 71.68c25.6-15.36 56.32-30.72 87.040-35.84l35.84-138.24h133.12l35.84 138.24c30.72 10.24 61.44 20.48 87.040 35.84l122.88-71.68 97.28 97.28-71.68 122.88c15.36 25.6 30.72 56.32 35.84 87.040l138.24 35.84zM819.2 385.707l-5.12-25.6c-10.24-35.84-20.48-71.68-46.080-107.52l-15.36-20.48 61.44-107.52v-5.12l-107.52 61.44-20.48-15.36c-30.72-20.48-66.56-35.84-107.52-46.080h-25.6l-30.72-122.88h-15.36l-35.84 122.88-25.6 5.12c-35.84 10.24-71.68 20.48-107.52 46.080l-20.48 15.36-107.52-66.56-5.12 5.12 61.44 107.52-15.36 20.48c-20.48 30.72-35.84 66.56-46.080 107.52v25.6l-122.88 30.72v15.36l122.88 35.84 5.12 25.6c5.12 35.84 20.48 71.68 40.96 102.4l15.36 20.48-61.44 112.64 5.12 5.12 107.52-61.44 20.48 15.36c35.84 20.48 71.68 35.84 112.64 40.96l20.48 5.12 30.72 122.88h10.24l40.96-122.88 25.6-5.12c35.84-10.24 71.68-20.48 107.52-46.080l20.48-15.36 107.52 66.56 5.12-5.12-61.44-107.52 15.36-20.48c20.48-30.72 35.84-66.56 46.080-107.52v-25.6l122.88-30.72v-10.24l-122.88-40.96z" />
<glyph unicode="&#xe955;" glyph-name="sign-out" d="M834.56 749.227c-61.44 61.44-143.36 107.52-225.28 128v-81.92c168.96-51.2 291.84-209.92 291.84-394.24 0-225.28-184.32-409.6-409.6-409.6s-409.6 184.32-409.6 409.6c0 184.32 122.88 343.040 291.84 394.24v87.040c-87.040-25.6-168.96-66.56-230.4-133.12-92.16-92.16-143.36-215.040-143.36-343.040 0-133.12 51.2-256 143.36-348.16s215.040-143.36 348.16-143.36 256 51.2 348.16 143.36c92.16 92.16 143.36 215.040 143.36 348.16-5.12 128-56.32 250.88-148.48 343.040zM450.56 938.667h81.92v-552.96h-81.92v552.96z" />
<glyph unicode="&#xe956;" glyph-name="system-log" d="M552.96 201.387c0-22.622-18.338-40.96-40.96-40.96s-40.96 18.338-40.96 40.96c0 22.622 18.338 40.96 40.96 40.96s40.96-18.338 40.96-40.96zM1013.76 191.147l-51.2 424.96c-5.12 61.44-40.96 117.76-87.040 148.48l-10.24 66.56c-5.12 66.56-66.56 112.64-128 107.52-30.72-5.12-61.44-20.48-76.8-40.96-20.48-20.48-25.6-51.2-25.6-81.92v-81.92c-30.72-35.84-46.080-76.8-46.080-128v-87.040c-30.72 10.24-56.32 15.36-76.8 15.36-25.6 0-51.2-5.12-71.68-15.36v87.040c0 51.2-20.48 97.28-51.2 128v76.8c0 30.72-10.24 61.44-25.6 81.92-25.6 25.6-51.2 40.96-81.92 46.080-66.56 5.12-122.88-40.96-133.12-107.52l-5.12-66.56h5.12c-51.2-30.72-81.92-87.040-87.040-143.36v0l-51.2-424.96c-10.24-20.48-10.24-40.96-10.24-56.32 0-122.88 97.28-220.16 220.16-220.16 117.76 0 215.040 92.16 220.16 209.92v0 138.24c20.48 20.48 46.080 30.72 71.68 30.72s51.2-10.24 71.68-30.72v-138.24c5.12-117.76 102.4-209.92 220.16-209.92 122.88 0 220.16 97.28 220.16 220.16-5.12 15.36-5.12 35.84-10.24 51.2zM230.4 820.907v0c0 25.6 20.48 40.96 46.080 35.84 25.6 0 30.72-30.72 30.72-46.080v-25.6c-20.48 5.12-35.84 10.24-56.32 10.24-10.24 0-15.36 0-25.6 0l5.12 25.6zM220.16-3.413c-76.8 0-138.24 61.44-138.24 138.24s61.44 138.24 138.24 138.24c76.8 0 138.24-61.44 138.24-138.24 0-71.68-61.44-138.24-138.24-138.24zM711.68 810.667c0 15.36 5.12 46.080 35.84 46.080 20.48 0 40.96-15.36 40.96-35.84l5.12-30.72c-5.12 0-15.36 0-20.48 0-20.48 0-40.96-5.12-61.44-10.24v30.72zM798.72-3.413c-76.8 0-138.24 61.44-138.24 138.24s61.44 138.24 138.24 138.24c76.8 0 138.24-61.44 138.24-138.24 5.12-71.68-61.44-138.24-138.24-138.24z" />
<glyph unicode="&#xe957;" glyph-name="system-users" d="M860.16 810.667c-97.28 15.36-184.32 71.68-230.4 102.4-30.72 15.36-66.56 25.6-97.28 25.6-35.84 0-71.68-10.24-102.4-30.72-46.080-30.72-133.12-81.92-230.4-102.4-56.32-5.12-97.28-56.32-97.28-117.76v-240.64c0-81.92 20.48-158.72 66.56-230.4 35.84-56.32 81.92-112.64 143.36-163.84 102.4-87.040 199.68-128 204.8-133.12l15.36-5.12 15.36 5.12c5.12 0 102.4 46.080 204.8 133.12 61.44 51.2 107.52 107.52 143.36 163.84 46.080 71.68 66.56 153.6 66.56 230.4v240.64c-5.12 61.44-46.080 112.64-102.4 122.88zM880.64 447.147c0-117.76-61.44-230.4-179.2-332.8-66.56-61.44-138.24-97.28-168.96-112.64-30.72 15.36-102.4 56.32-168.96 112.64-117.76 102.4-179.2 215.040-179.2 332.8v240.64c0 20.48 15.36 35.84 30.72 40.96 112.64 20.48 209.92 76.8 261.12 112.64 15.36 10.24 35.84 15.36 51.2 15.36 20.48 0 35.84-5.12 51.2-15.36 51.2-35.84 148.48-92.16 261.12-112.64 20.48-5.12 30.72-20.48 30.72-40.96v-240.64zM552.96 769.707l-20.48 15.36-25.6-15.36c-46.080-35.84-122.88-76.8-215.040-102.4l-30.72-10.24v-209.92c0-51.2 15.36-97.28 46.080-148.48 25.6-40.96 61.44-81.92 107.52-122.88 30.72-25.6 61.44-46.080 97.28-66.56l20.48-15.36 20.48 15.36c35.84 20.48 71.68 46.080 102.4 71.68 46.080 40.96 81.92 81.92 102.4 122.88 25.6 46.080 40.96 97.28 40.96 143.36v209.92l-30.72 10.24c-87.040 25.6-163.84 66.56-215.040 102.4zM716.8 447.147c0-35.84-10.24-71.68-30.72-107.52s-51.2-66.56-87.040-102.4c-20.48-20.48-46.080-35.84-66.56-51.2-20.48 15.36-46.080 30.72-66.56 46.080-40.96 35.84-71.68 66.56-92.16 102.4-20.48 40.96-30.72 76.8-30.72 112.64v148.48c76.8 25.6 138.24 61.44 189.44 87.040 46.080-30.72 112.64-61.44 189.44-87.040v-148.48z" />
<glyph unicode="&#xe958;" glyph-name="world" d="M875.52 790.187c-97.28 97.28-225.28 148.48-363.52 148.48s-266.24-51.2-363.52-148.48c-97.28-97.28-148.48-225.28-148.48-363.52s51.2-266.24 148.48-363.52c97.28-97.28 225.28-148.48 363.52-148.48s266.24 51.2 363.52 148.48c97.28 97.28 148.48 225.28 148.48 363.52s-51.2 266.24-148.48 363.52zM332.8 820.907c-10.24-15.36-15.36-25.6-25.6-40.96-10.24-25.6-20.48-51.2-30.72-76.8h-97.28c40.96 51.2 92.16 87.040 153.6 117.76zM128 621.227h128c-10.24-51.2-15.36-102.4-20.48-153.6h-153.6c5.12 56.32 20.48 107.52 46.080 153.6zM128 232.107c-25.6 46.080-40.96 102.4-46.080 153.6h153.6c0-56.32 10.24-107.52 20.48-153.6h-128zM179.2 150.187h97.28c10.24-25.6 20.48-51.2 30.72-76.8 5.12-15.36 15.36-30.72 25.6-40.96-61.44 30.72-112.64 66.56-153.6 117.76zM471.040 6.827c-30.72 15.36-66.56 51.2-92.16 107.52-5.12 10.24-10.24 25.6-15.36 40.96h107.52v-148.48zM471.040 232.107h-133.12c-10.24 46.080-20.48 102.4-20.48 153.6h153.6v-153.6zM471.040 467.627h-153.6c0 56.32 10.24 107.52 20.48 153.6h133.12v-153.6zM471.040 703.147h-107.52c5.12 15.36 10.24 25.6 15.36 40.96 25.6 51.2 56.32 87.040 92.16 107.52v-148.48zM896 621.227c25.6-46.080 40.96-102.4 46.080-153.6h-153.6c0 56.32-10.24 107.52-20.48 153.6h128zM844.8 703.147h-97.28c-10.24 25.6-20.48 51.2-30.72 76.8-5.12 15.36-15.36 30.72-25.6 40.96 61.44-30.72 112.64-66.56 153.6-117.76zM552.96 846.507c30.72-15.36 66.56-51.2 92.16-107.52 5.12-10.24 10.24-25.6 15.36-40.96h-107.52v148.48zM552.96 621.227h133.12c10.24-46.080 20.48-102.4 20.48-153.6h-153.6v153.6zM645.12 109.227c-25.6-51.2-56.32-87.040-92.16-107.52v143.36h107.52c-5.12-10.24-10.24-20.48-15.36-35.84zM552.96 232.107v153.6h153.6c0-56.32-10.24-107.52-20.48-153.6h-133.12zM691.2 32.427c10.24 15.36 15.36 25.6 25.6 40.96 10.24 25.6 20.48 51.2 30.72 76.8h97.28c-40.96-51.2-92.16-87.040-153.6-117.76zM896 232.107h-128c10.24 51.2 15.36 102.4 20.48 153.6h153.6c-5.12-56.32-20.48-107.52-46.080-153.6z" />
<glyph unicode="&#xe959;" glyph-name="wrong" horiz-adv-x="910" d="M910.222 836.267l-45.511 45.511-409.6-409.6-409.6 409.6-45.511-45.511 409.6-409.6-409.6-409.6 45.511-45.511 409.6 409.6 409.6-409.6 45.511 45.511-409.6 409.6z" />
<glyph unicode="&#xe95a;" glyph-name="documentation" horiz-adv-x="825" d="M584.282 631.61h156.612l-216.847 216.847v-156.612c-6.024-24.094 24.094-60.235 60.235-60.235zM578.259 709.916l18.071-18.071h-12.047c0 0-6.024 6.024-6.024 6.024v12.047zM536.094 938.81h-385.506c-78.306 0-144.565-66.259-144.565-144.565v-728.847c0-78.306 66.259-144.565 144.565-144.565h524.047c78.306 0 144.565 66.259 144.565 144.565v584.282l-283.106 289.129zM764.988 65.398c0-48.188-42.165-84.329-84.329-84.329h-524.047c-48.188 0-84.329 42.165-84.329 84.329v728.847c0 48.188 42.165 84.329 84.329 84.329h361.412l246.965-246.965v-566.212z" />
</font>
</defs>
</svg>
