<?xml version="1.0" standalone="no"?>
<!DOCTYPE svg PUBLIC "-//W3C//DTD SVG 1.1//EN" "http://www.w3.org/Graphics/SVG/1.1/DTD/svg11.dtd" >
<svg xmlns="http://www.w3.org/2000/svg">
<metadata>Generated by IcoMoon</metadata>
<defs>
<font id="icomoon" horiz-adv-x="1024">
<font-face units-per-em="1024" ascent="960" descent="-64" />
<missing-glyph horiz-adv-x="1024" />
<glyph unicode="&#x20;" horiz-adv-x="512" d="" />
<glyph unicode="&#xe900;" glyph-name="edit" d="M1003.52 811.52l-128 122.88c-25.6 25.6-71.68 25.6-102.4 0l-665.6-665.6c-20.48-20.48-35.84-46.080-46.080-76.8v0l-61.44-256 256 56.32c25.6 10.24 56.32 25.6 76.8 46.080l670.72 675.84c15.36 15.36 20.48 30.72 20.48 51.2 0 15.36-5.12 35.84-20.48 46.080zM107.52 43.52l25.6 102.4 81.92-81.92-107.52-20.48zM896 719.36l-112.64 112.64 46.080 46.080 112.64-112.64-46.080-46.080z" />
<glyph unicode="&#xe901;" glyph-name="high-risk" horiz-adv-x="597" d="M298.667 960l-298.667-298.667 85.333-85.333 153.6 162.133v-802.133h119.467v802.133l153.6-162.133 85.333 85.333z" />
<glyph unicode="&#xe902;" glyph-name="caret-right" horiz-adv-x="601" d="M582.459 490.275l-460.33 460.33c-18.789 18.789-46.972 18.789-65.761 0l-46.972-37.578c-18.789-18.789-18.789-46.972 0-65.761l394.569-394.569-394.569-394.569c-18.789-18.789-18.789-46.972 0-65.761l37.578-37.578c18.789-18.789 46.972-18.789 65.761 0l460.33 460.33c28.183 18.789 28.183 56.367 9.394 75.156z" />
<glyph unicode="&#xe903;" glyph-name="low-risk" horiz-adv-x="683" d="M639.334 233.935l-82.194 82.193-155.851-155.857v799.729h-116.236v-803.279l-159.409 159.406-82.188-82.193 297.94-297.935 297.938 297.935z" />
<glyph unicode="&#xe904;" glyph-name="medium-risk" d="M725.333 755.2l-85.333-85.333 162.133-153.6h-580.267l162.133 153.6-85.333 85.333-298.667-298.667 298.667-298.667 85.333 85.333-162.133 153.6h580.267l-162.133-153.6 85.333-85.333 298.667 298.667z" />
<glyph unicode="&#xe905;" glyph-name="trash" horiz-adv-x="865" d="M552.96 514.56h81.92v-419.84h-81.92v419.84zM742.4 816.64h-122.88v25.6c0 66.56-56.32 117.76-117.76 117.76h-138.24c-66.56 0-122.88-56.32-122.88-117.76v-25.6h-122.88c-61.44 0-117.76-56.32-117.76-122.88v-102.4h81.92v-537.6c0-66.56 56.32-117.76 117.76-117.76h465.92c66.56 0 117.76 56.32 117.76 117.76v542.72h81.92v102.4c0 61.44-56.32 117.76-122.88 117.76zM322.56 842.24c0 20.48 20.48 40.96 40.96 40.96h138.24c20.48 0 40.96-20.48 40.96-40.96v-25.6h-220.16v25.6zM706.56 53.76c0-20.48-20.48-40.96-40.96-40.96h-465.92c-20.48 0-40.96 20.48-40.96 40.96v542.72h542.72v-542.72zM783.36 673.28h-701.44v20.48c0 20.48 20.48 40.96 40.96 40.96h624.64c20.48 0 40.96-20.48 40.96-40.96v-20.48zM394.24 514.56h81.92v-419.84h-81.92v419.84zM230.4 514.56h81.92v-419.84h-81.92v419.84z" />
<glyph unicode="&#xe906;" glyph-name="add-customer" d="M808.96 663.040c0 163.84-133.12 296.96-296.96 296.96s-296.96-133.12-296.96-296.96c0-102.4 51.2-189.44 128-245.76-71.68-20.48-138.24-61.44-194.56-117.76-97.28-97.28-148.48-225.28-148.48-363.52h81.92c0 235.52 194.56 430.080 430.080 430.080 163.84 5.12 296.96 133.12 296.96 296.96zM512 448c-117.76 0-215.040 97.28-215.040 215.040s97.28 215.040 215.040 215.040c117.76 0 215.040-97.28 215.040-215.040s-97.28-215.040-215.040-215.040zM855.040 186.88v163.84h-76.8v-163.84h-168.96v-81.92h168.96v-168.96h76.8v168.96h168.96v81.92z" />
<glyph unicode="&#xe907;" glyph-name="blacklist" d="M275.2 505.6h44.8c19.2 0 32 12.8 32 32 6.4 25.6-12.8 38.4-32 38.4h-44.8c-19.2 0-32-12.8-32-32s12.8-38.4 32-38.4zM460.8 268.8c-12.8 12.8-38.4 12.8-51.2 0l-38.4-38.4-38.4 38.4c-12.8 12.8-38.4 12.8-51.2 0s-12.8-38.4 0-51.2l38.4-38.4-38.4-38.4c-12.8-12.8-12.8-38.4 0-51.2s38.4-12.8 51.2 0l38.4 38.4 38.4-38.4c12.8-12.8 38.4-12.8 51.2 0s12.8 38.4 0 51.2l-38.4 38.4 38.4 38.4c12.8 12.8 12.8 38.4 0 51.2zM275.2 646.4h44.8c19.2 0 32 12.8 32 32 6.4 25.6-12.8 38.4-32 38.4h-44.8c-19.2 0-32-12.8-32-32s12.8-38.4 32-38.4zM320 371.2c19.2 0 32 12.8 32 32s-12.8 32-32 32h-44.8c-19.2 6.4-32-12.8-32-32s12.8-32 32-32h44.8zM876.8 960h-742.4c-19.2 0-32-12.8-32-32v-953.6c0-19.2 12.8-32 32-32h742.4c19.2 0 32 12.8 32 32v953.6c6.4 19.2-12.8 32-32 32zM844.8 492.8v-492.8h-672v889.6h115.2v-32c0-19.2 12.8-32 32-32h371.2c19.2 0 32 12.8 32 32v32h115.2v-396.8zM422.4 684.8c0-19.2 12.8-32 32-32h275.2c19.2 0 32 12.8 32 32s-12.8 32-32 32h-268.8c-19.2 0-38.4-12.8-38.4-32zM736 441.6h-275.2c-19.2 0-32-12.8-32-32s12.8-32 32-32h275.2c19.2 0 32 12.8 32 32 6.4 12.8-12.8 32-32 32zM736 576h-275.2c-19.2 0-38.4-12.8-38.4-32s12.8-32 32-32h275.2c19.2 0 32 12.8 32 32 12.8 19.2-6.4 32-25.6 32z" />
<glyph unicode="&#xe908;" glyph-name="calendar" d="M614.4 217.6h70.4v-70.4h-70.4v70.4zM480 492.8h70.4v-70.4h-70.4v70.4zM480 352h70.4v-70.4h-70.4v70.4zM614.4 352h70.4v-70.4h-70.4v70.4zM755.2 492.8h70.4v-70.4h-70.4v70.4zM614.4 492.8h70.4v-70.4h-70.4v70.4zM755.2 352h70.4v-70.4h-70.4v70.4zM480 217.6h70.4v-70.4h-70.4v70.4zM339.2 492.8h70.4v-70.4h-70.4v70.4zM198.4 217.6h70.4v-70.4h-70.4v70.4zM851.2 819.2h-38.4v70.4h-70.4v-70.4h-460.8v70.4h-64v-70.4h-44.8c-57.6 0-102.4-44.8-102.4-102.4v-608c0-57.6 44.8-102.4 102.4-102.4h678.4c57.6 0 102.4 44.8 102.4 102.4v608c0 57.6-44.8 102.4-102.4 102.4zM883.2 108.8c0-19.2-12.8-32-32-32h-678.4c-19.2 0-32 12.8-32 32v454.4h748.8v-454.4zM198.4 352h70.4v-70.4h-70.4v70.4zM339.2 352h70.4v-70.4h-70.4v70.4zM198.4 492.8h70.4v-70.4h-70.4v70.4zM339.2 217.6h70.4v-70.4h-70.4v70.4z" />
<glyph unicode="&#xe909;" glyph-name="caret-down" horiz-adv-x="1761" d="M20.48 898.56c-40.96-40.96-40.96-102.4 0-143.36l778.24-778.24c0 0 20.48-20.48 40.96-20.48 40.96-20.48 81.92 0 102.4 20.48l40.96 40.96c0 0 0 0 0 0l737.28 737.28c40.96 40.96 40.96 102.4 0 143.36l-20.48 40.96c-40.96 40.96-102.4 40.96-143.36 0l-675.84-675.84-675.84 675.84c-40.96 20.48-102.4 20.48-143.36 0l-40.96-40.96z" />
<glyph unicode="&#xe90a;" glyph-name="caret-left" horiz-adv-x="601" d="M544.881 950.606c-18.789 18.789-56.367 18.789-75.156 0l-460.33-460.33c-18.789-18.789-18.789-46.972 0-65.761l460.33-460.33c18.789-18.789 46.972-18.789 65.761 0l37.578 37.578c18.789 18.789 18.789 46.972 0 65.761l-385.174 385.174 394.569 394.569c18.789 18.789 18.789 46.972 0 65.761l-37.578 37.578z" />
<glyph unicode="&#xe90b;" glyph-name="change-password" d="M570.709 321.024c0 38.912-29.355 68.267-68.267 68.267s-68.267-29.355-68.267-68.267c0-24.576 14.336-43.691 34.133-58.709v-82.603c0-24.576 19.797-38.912 38.912-38.912 24.576 0 38.912 19.797 38.912 38.912v82.603c19.797 10.24 34.133 34.816 24.576 58.709zM785.067 579.755h-73.045v155.648c0 107.179-92.843 200.021-204.8 200.021s-204.8-88.064-204.8-200.021v-156.331h-68.267c-58.709 0-111.957-48.469-111.957-111.957v-389.803c0-58.709 48.469-111.957 111.957-111.957h550.912c58.709 0 111.957 48.469 111.957 111.957v390.485c0 58.027-48.469 111.957-111.957 111.957zM380.245 730.624c0 68.267 58.709 126.976 131.755 126.976 68.267 0 126.976-53.931 126.976-122.197v-161.109h-258.731v156.331zM823.979 72.533c0-19.797-19.797-38.912-38.912-38.912h-550.912c-19.797 0-38.912 19.797-38.912 38.912v389.803c0 7.509 2.731 14.336 7.509 21.163 7.509 10.24 19.797 18.432 32.085 18.432h550.229c19.797 0 38.912-19.797 38.912-38.912v-390.485z" />
<glyph unicode="&#xe90c;" glyph-name="check" horiz-adv-x="1388" d="M1301.695 960l-763.661-867.797-468.61 433.898-69.424-69.424 538.034-520.678 850.441 954.576z" />
<glyph unicode="&#xe90d;" glyph-name="cloud" horiz-adv-x="1191" d="M970.419 596.837c-5.953 202.419-172.651 363.163-381.023 363.163-89.302 0-178.605-35.721-250.047-95.256-59.535-53.581-101.209-125.023-113.116-208.372-59.535-11.907-113.116-41.674-148.837-83.349-47.628-53.581-77.395-119.070-77.395-190.512s23.814-136.93 71.442-190.512c47.628-53.581 113.116-83.349 178.605-95.256v0h5.953v89.302c-95.256 11.907-166.698 95.256-166.698 190.512 0 101.209 77.395 184.558 172.651 190.512l35.721 5.953 5.953 35.721c11.907 142.884 136.93 256 279.814 256 154.791 0 285.767-125.023 285.767-285.767v-83.349h65.488c83.349 0 154.791-71.442 154.791-154.791s-71.442-154.791-154.791-154.791h-11.907v-95.256h11.907c136.93 0 250.047 113.116 250.047 250.047 5.953 136.93-89.302 238.14-214.326 256zM642.977 108.651v464.372h-95.256v-464.372l-136.93 142.884-65.488-65.488 250.047-250.047 250.047 250.047-65.488 65.488z" />
<glyph unicode="&#xe90e;" glyph-name="configurations" d="M675.84 448l5.12 5.12c25.6-10.24 56.32-15.36 81.92-15.36 143.36 0 261.12 117.76 261.12 261.12 0 35.84-10.24 76.8-25.6 107.52l-25.6 51.2-143.36-143.36c-5.12-5.12-15.36-10.24-25.6-10.24s-20.48 5.12-25.6 10.24c-5.12 10.24-10.24 15.36-10.24 25.6s5.12 20.48 10.24 25.6l143.36 143.36-51.2 25.6c-30.72 15.36-66.56 25.6-107.52 25.6-143.36 0-261.12-117.76-261.12-261.12 0-30.72 5.12-56.32 15.36-81.92l-56.32-61.44-148.48 148.48v133.12l-204.8 122.88-107.52-107.52 122.88-204.8h133.12l148.48-148.48-368.64-368.64c-20.48-20.48-35.84-51.2-35.84-81.92s10.24-61.44 35.84-81.92c20.48-20.48 51.2-35.84 81.92-35.84s61.44 10.24 81.92 35.84l312.32 312.32 312.32-312.32c20.48-20.48 51.2-35.84 81.92-35.84s61.44 10.24 81.92 35.84c20.48 20.48 35.84 51.2 35.84 81.92s-10.24 61.44-35.84 81.92l-312.32 317.44zM230.4 729.6h-61.44l-66.56 107.52 20.48 20.48 112.64-66.56v-61.44zM931.84 28.16c-5.12-5.12-15.36-10.24-25.6-10.24s-20.48 5.12-25.6 10.24l-312.32 312.32 51.2 51.2 312.32-312.32c5.12-5.12 10.24-15.36 10.24-25.6s0-20.48-10.24-25.6z" />
<glyph unicode="&#xe90f;" glyph-name="customer-profil" d="M609.28 463.36c0 15.36 0 30.72-5.12 46.080 15.36 0 25.6-5.12 40.96-5.12 97.28 0 184.32-46.080 240.64-117.76l56.32 61.44c-40.96 46.080-92.16 87.040-153.6 112.64 51.2 40.96 81.92 102.4 81.92 174.080-5.12 122.88-102.4 225.28-230.4 225.28s-225.28-102.4-225.28-225.28c0-15.36 0-30.72 5.12-46.080-10.24 0-25.6 0-35.84 0-122.88 0-225.28-102.4-225.28-225.28 0-71.68 30.72-133.12 81.92-174.080-143.36-56.32-240.64-194.56-240.64-353.28h81.92c0 168.96 133.12 302.080 302.080 302.080 122.88 0 225.28 102.4 225.28 225.28zM384 320c-81.92 0-143.36 66.56-143.36 143.36s66.56 143.36 143.36 143.36c81.92 0 143.36-66.56 143.36-143.36s-66.56-143.36-143.36-143.36zM496.64 734.72c0 81.92 66.56 143.36 143.36 143.36s143.36-66.56 143.36-143.36c0-81.92-66.56-143.36-143.36-143.36s-143.36 61.44-143.36 143.36zM962.56 360.96l-276.48-312.32-158.72 153.6-51.2-61.44 215.040-204.8 332.8 368.64z" />
<glyph unicode="&#xe911;" glyph-name="eforms" d="M660.48 453.12c0 20.48-20.48 40.96-40.96 40.96h-373.76c-20.48 0-40.96-20.48-40.96-40.96s20.48-40.96 40.96-40.96h368.64c25.6 0 46.080 15.36 46.080 40.96zM983.040 314.88c-15.36 15.36-40.96 15.36-56.32-5.12l-225.28-250.88-112.64 107.52c-15.36 15.36-40.96 15.36-56.32 0s-15.36-40.96 0-56.32l143.36-138.24c5.12-5.12 15.36-10.24 30.72-10.24v0c10.24 0 20.48 5.12 30.72 15.36l256 281.6c5.12 15.36 5.12 40.96-10.24 56.32zM399.36 17.92h-317.44v860.16h686.080v-460.8c0-20.48 20.48-40.96 40.96-40.96s40.96 20.48 40.96 40.96v501.76c0 20.48-20.48 40.96-40.96 40.96h-768c-20.48 0-40.96-20.48-40.96-40.96v-942.080c0-20.48 20.48-40.96 40.96-40.96h358.4c20.48 0 40.96 20.48 40.96 40.96s-20.48 40.96-40.96 40.96zM245.76 273.92c-20.48 0-40.96-20.48-40.96-40.96 0-25.6 20.48-40.96 40.96-40.96h112.64c20.48 0 40.96 20.48 40.96 40.96s-20.48 40.96-40.96 40.96h-112.64zM619.52 719.36h-373.76c-20.48 0-40.96-20.48-40.96-40.96s20.48-40.96 40.96-40.96h368.64c20.48 0 40.96 20.48 40.96 40.96s-15.36 40.96-35.84 40.96z" />
<glyph unicode="&#xe912;" glyph-name="enforcement" d="M595.2 147.2h-198.4c-19.2 0-32-12.8-32-32s12.8-32 32-32h198.4c19.2 0 32 12.8 32 32s-19.2 32-32 32zM992 659.2l-25.6 108.8c0 12.8-6.4 19.2-19.2 19.2l-441.6 172.8c-6.4 0-12.8 0-19.2 0l-441.6-166.4c-12.8-6.4-19.2-12.8-19.2-25.6l-25.6-108.8c0-6.4 0-19.2 6.4-25.6l121.6-134.4c0 0 0 0 0 0v-38.4h-38.4c-38.4 0-70.4-32-70.4-70.4v-70.4c0-51.2 38.4-89.6 89.6-89.6h19.2v-25.6c0-147.2 121.6-268.8 262.4-268.8h204.8c147.2 0 268.8 121.6 268.8 268.8v25.6h12.8c51.2 0 89.6 38.4 89.6 89.6v76.8c0 38.4-32 70.4-70.4 70.4h-38.4v32c0 0 0 0 0 0l121.6 134.4c12.8 12.8 12.8 19.2 12.8 25.6zM806.4 204.8c0-115.2-89.6-204.8-204.8-204.8h-211.2c-115.2 0-204.8 89.6-204.8 204.8v198.4c19.2-12.8 38.4-19.2 57.6-32 51.2-25.6 108.8-38.4 172.8-44.8l-12.8-108.8c0-6.4 0-19.2 6.4-25.6s12.8-12.8 19.2-12.8h121.6c12.8 6.4 25.6 12.8 25.6 19.2 6.4 6.4 6.4 12.8 6.4 25.6l-6.4 102.4c64 6.4 121.6 25.6 172.8 44.8 19.2 12.8 38.4 19.2 57.6 32v-198.4zM467.2 249.6l6.4 70.4c6.4 0 12.8 0 19.2 0s12.8 0 19.2 0l6.4-76.8h-51.2zM819.2 537.6h-646.4l-108.8 128 19.2 76.8 409.6 153.6 416-153.6 19.2-76.8-108.8-128zM576 819.2c-6.4 0-57.6 12.8-83.2 12.8-19.2 0-70.4-12.8-83.2-12.8s-25.6-12.8-25.6-32v-147.2c0-12.8 6.4-25.6 19.2-25.6l76.8-32c6.4 0 6.4 0 12.8 0s6.4 0 12.8 0l76.8 32c12.8 6.4 19.2 12.8 19.2 25.6v147.2c0 19.2-6.4 32-25.6 32zM544 659.2l-51.2-19.2-44.8 19.2v108.8c19.2 0 38.4 6.4 44.8 6.4s32-6.4 51.2-6.4v-108.8z" />
<glyph unicode="&#xe913;" glyph-name="export" horiz-adv-x="1191" d="M642.977 108.651v464.372h-95.256v-464.372l-136.93 142.884-65.488-65.488 250.047-250.047 250.047 250.047-65.488 65.488zM970.419 596.837c-5.953 202.419-172.651 363.163-381.023 363.163-89.302 0-178.605-35.721-250.047-95.256-59.535-53.581-101.209-125.023-113.116-208.372-59.535-11.907-113.116-41.674-148.837-83.349-47.628-53.581-77.395-119.070-77.395-190.512s23.814-136.93 71.442-190.512c47.628-53.581 113.116-83.349 178.605-95.256v0h5.953v89.302c-95.256 11.907-166.698 95.256-166.698 190.512 0 101.209 77.395 184.558 172.651 190.512l35.721 5.953 5.953 35.721c11.907 142.884 136.93 256 279.814 256 154.791 0 285.767-125.023 285.767-285.767v-83.349h65.488c83.349 0 154.791-71.442 154.791-154.791s-71.442-154.791-154.791-154.791h-11.907v-95.256h11.907c136.93 0 250.047 113.116 250.047 250.047 5.953 136.93-89.302 238.14-214.326 256z" />
<glyph unicode="&#xe914;" glyph-name="eye-view" horiz-adv-x="1463" d="M841.143 455.314c0-60.594-49.121-109.714-109.714-109.714s-109.714 49.121-109.714 109.714c0 60.594 49.121 109.714 109.714 109.714s109.714-49.121 109.714-109.714zM1440.914 484.571v0 0 0c0 0-14.629 21.943-21.943 36.571v0c-36.571 43.886-124.343 160.914-241.371 256-146.286 124.343-299.886 182.857-446.171 182.857s-299.886-58.514-446.171-182.857c-117.029-95.086-204.8-212.114-241.371-256-7.314-7.314-21.943-29.257-21.943-36.571l-21.943-29.257 21.943-29.257c0 0 14.629-21.943 21.943-36.571v0c36.571-43.886 124.343-160.914 241.371-256 146.286-124.343 299.886-182.857 446.171-182.857s299.886 58.514 446.171 182.857c117.029 95.086 204.8 204.8 241.371 256v0c7.314 7.314 21.943 29.257 21.943 36.571l21.943 29.257-21.943 29.257zM731.429 60.343c-190.171 0-394.971 131.657-592.457 387.657 197.486 263.314 402.286 394.971 592.457 394.971s394.971-131.657 592.457-387.657c-197.486-263.314-402.286-394.971-592.457-394.971zM731.429 777.143c-182.857 0-329.143-146.286-329.143-329.143s146.286-329.143 329.143-329.143 329.143 146.286 329.143 329.143-146.286 329.143-329.143 329.143zM731.429 243.2c-117.029 0-212.114 95.086-212.114 212.114s95.086 212.114 212.114 212.114c117.029 0 212.114-95.086 212.114-212.114s-95.086-212.114-212.114-212.114z" />
<glyph unicode="&#xe915;" glyph-name="graph" d="M921.6 736h-96c-57.6 0-102.4-44.8-102.4-102.4v-601.6c0-57.6 44.8-102.4 102.4-102.4h96c57.6 0 102.4 44.8 102.4 102.4v601.6c0 57.6-44.8 102.4-102.4 102.4zM947.2 38.4c0-12.8-6.4-19.2-19.2-19.2h-96c-12.8 0-19.2 6.4-19.2 19.2v595.2c0 12.8 6.4 19.2 19.2 19.2h96c12.8 0 19.2-6.4 19.2-19.2v-595.2zM563.2 960h-96c-57.6 0-102.4-44.8-102.4-102.4v-825.6c0-57.6 44.8-102.4 102.4-102.4h96c57.6 0 102.4 44.8 102.4 102.4v825.6c-6.4 57.6-51.2 102.4-102.4 102.4zM582.4 38.4c0-12.8-6.4-19.2-19.2-19.2h-96c-12.8 0-19.2 6.4-19.2 19.2v819.2c0 12.8 6.4 19.2 19.2 19.2h96c12.8 0 19.2-6.4 19.2-19.2v-819.2zM198.4 428.8h-96c-57.6 0-102.4-44.8-102.4-96v-294.4c0-57.6 44.8-102.4 102.4-102.4h96c57.6 0 102.4 44.8 102.4 102.4v294.4c-6.4 51.2-51.2 96-102.4 96zM217.6 38.4c0-12.8-6.4-19.2-19.2-19.2h-96c-12.8 0-19.2 6.4-19.2 19.2v294.4c0 12.8 6.4 19.2 19.2 19.2h96c12.8 0 19.2-6.4 19.2-19.2v-294.4z" />
<glyph unicode="&#xe916;" glyph-name="id-card" horiz-adv-x="1452" d="M530.156 458.894c21.787 29.050 36.312 65.362 36.312 101.674 0 87.149-72.624 152.511-152.511 152.511s-152.511-72.624-152.511-152.511c0-36.312 14.525-72.624 36.312-101.674-72.624-43.574-123.461-123.461-123.461-210.61v-29.050c0-21.787 21.787-43.574 43.574-43.574h399.433c21.787 0 43.574 21.787 43.574 43.574v29.050c-7.262 94.411-58.099 174.298-130.723 210.61zM413.957 495.206c-36.312 0-72.624 29.050-72.624 72.624s29.050 72.624 72.624 72.624c36.312 0 72.624-29.050 72.624-72.624s-36.312-72.624-72.624-72.624zM784.34 575.092h167.035c21.787 0 43.574 21.787 43.574 43.574s-21.787 43.574-43.574 43.574h-167.035c-21.787 0-43.574-21.787-43.574-43.574s21.787-43.574 43.574-43.574zM1241.872 320.908h-457.532c-21.787 0-43.574-21.787-43.574-43.574s21.787-43.574 43.574-43.574h457.532c21.787 0 43.574 21.787 43.574 43.574s-21.787 43.574-43.574 43.574zM1241.872 495.206h-457.532c-21.787 0-43.574-21.787-43.574-43.574s21.787-43.574 43.574-43.574h457.532c21.787 0 43.574 21.787 43.574 43.574s-21.787 43.574-43.574 43.574zM1321.759 960h-1191.035c-72.624 0-130.723-58.099-130.723-130.723v-762.553c0-72.624 58.099-130.723 130.723-130.723h1198.298c72.624 0 130.723 58.099 130.723 130.723v762.553c-7.262 72.624-65.362 130.723-137.986 130.723zM1365.333 66.723c0-21.787-21.787-43.574-43.574-43.574h-1191.035c-21.787 0-43.574 21.787-43.574 43.574v762.553c0 21.787 21.787 43.574 43.574 43.574h1198.298c21.787 0 43.574-21.787 43.574-43.574v-762.553z" />
<glyph unicode="&#xe917;" glyph-name="loading" d="M512 960c-34.133 0-59.733-25.6-59.733-68.267v-187.733c0-34.133 25.6-68.267 68.267-68.267s59.733 34.133 59.733 68.267v187.733c0 42.667-34.133 68.267-68.267 68.267zM324.267 448c0 34.133-25.6 68.267-68.267 68.267h-187.733c-42.667-8.533-68.267-34.133-68.267-68.267s25.6-68.267 68.267-68.267h187.733c34.133 0 68.267 34.133 68.267 68.267zM964.267 507.733h-196.267c-34.133 0-59.733-25.6-59.733-59.733s25.6-68.267 59.733-68.267h196.267c34.133 0 59.733 34.133 59.733 68.267s-25.6 59.733-59.733 59.733zM512 251.733c-34.133 0-59.733-25.6-59.733-59.733v-196.267c0-34.133 25.6-59.733 59.733-59.733s68.267 25.6 68.267 68.267v187.733c0 34.133-34.133 59.733-68.267 59.733zM776.533 277.333c-25.6 25.6-68.267 25.6-93.867 0s-25.6-68.267 0-93.867l136.533-136.533c25.6-25.6 68.267-25.6 93.867 0s25.6 68.267 0 93.867l-136.533 136.533zM196.267 849.067c-25.6 25.6-59.733 25.6-85.333 0s-25.6-59.733 0-85.333l136.533-136.533c25.6-25.6 68.267-25.6 93.867 0s25.6 68.267 0 93.867l-145.067 128zM776.533 627.2l136.533 136.533c25.6 25.6 25.6 59.733 0 85.333s-68.267 25.6-93.867 0l-136.533-136.533c-25.6-25.6-25.6-59.733 0-85.333s68.267-25.6 93.867 0zM247.467 277.333l-136.533-136.533c-25.6-25.6-25.6-68.267 0-93.867s59.733-25.6 85.333 0l136.533 136.533c25.6 25.6 25.6 68.267 0 93.867s-59.733 25.6-85.333 0z" />
<glyph unicode="&#xe918;" d="M499.2 960h25.6c28.277 0 51.2-22.923 51.2-51.2v-217.6c0-28.277-22.923-51.2-51.2-51.2h-25.6c-28.277 0-51.2 22.923-51.2 51.2v217.6c0 28.277 22.923 51.2 51.2 51.2z" />
<glyph unicode="&#xe919;" d="M51.2 512h217.6c28.277 0 51.2-22.923 51.2-51.2v-25.6c0-28.277-22.923-51.2-51.2-51.2h-217.6c-28.277 0-51.2 22.923-51.2 51.2v25.6c0 28.277 22.923 51.2 51.2 51.2z" />
<glyph unicode="&#xe91a;" d="M755.2 512h217.6c28.277 0 51.2-22.923 51.2-51.2v-25.6c0-28.277-22.923-51.2-51.2-51.2h-217.6c-28.277 0-51.2 22.923-51.2 51.2v25.6c0 28.277 22.923 51.2 51.2 51.2z" />
<glyph unicode="&#xe91b;" d="M499.2 256h25.6c28.277 0 51.2-22.923 51.2-51.2v-217.6c0-28.277-22.923-51.2-51.2-51.2h-25.6c-28.277 0-51.2 22.923-51.2 51.2v217.6c0 28.277 22.923 51.2 51.2 51.2z" />
<glyph unicode="&#xe91c;" d="M676.204 193.285c-19.994 19.999-19.994 52.413 0 72.407l18.104 18.104c19.994 19.994 52.408 19.994 72.407 0l153.866-153.866c19.994-19.994 19.994-52.413 0-72.407l-18.104-18.104c-19.994-19.994-52.413-19.994-72.407 0l-153.866 153.866z" />
<glyph unicode="&#xe91d;" d="M100.204 769.287c-19.995 19.995-19.995 52.413 0 72.408l18.102 18.102c19.995 19.995 52.413 19.995 72.408 0l153.867-153.866c19.995-19.995 19.995-52.413 0-72.408l-18.102-18.102c-19.995-19.995-52.413-19.995-72.408 0l-153.866 153.867z" />
<glyph unicode="&#xe91e;" d="M830.070 859.796c19.999 19.995 52.413 19.995 72.407 0l18.104-18.102c19.994-19.995 19.994-52.413 0-72.408l-153.866-153.867c-19.994-19.995-52.413-19.995-72.407 0l-18.104 18.102c-19.994 19.995-19.994 52.413 0 72.408l153.866 153.866z" />
<glyph unicode="&#xe91f;" d="M254.071 283.796c19.995 19.994 52.413 19.994 72.408 0l18.102-18.104c19.995-19.994 19.995-52.408 0-72.407l-153.866-153.866c-19.995-19.994-52.413-19.994-72.408 0l-18.102 18.104c-19.995 19.994-19.995 52.413 0 72.407l153.867 153.866z" />
<glyph unicode="&#xe920;" glyph-name="pep" d="M870.4 6.4h-32v224h32c19.2 0 38.4 12.8 38.4 38.4 0 19.2-12.8 38.4-38.4 38.4h-76.8v108.8h25.6c19.2 0 38.4 12.8 38.4 38.4s-12.8 38.4-38.4 38.4h-633.6c-19.2-6.4-32-25.6-32-44.8s12.8-38.4 38.4-38.4h25.6v-115.2h-76.8c-19.2 0-38.4-12.8-38.4-38.4 0-19.2 12.8-38.4 38.4-38.4h32v-224h-32c-19.2 0-38.4-12.8-38.4-38.4 0-19.2 12.8-38.4 38.4-38.4h729.6c19.2 0 38.4 12.8 38.4 38.4-6.4 38.4-19.2 51.2-38.4 51.2zM339.2 300.8h-51.2v115.2h57.6v-115.2zM467.2 300.8h-57.6v115.2h57.6v-115.2zM614.4 6.4h-76.8v224h76.8v-224zM768 6.4h-76.8v224h76.8v-224zM185.6 531.2h633.6c19.2 0 38.4 12.8 38.4 38.4s-12.8 38.4-38.4 38.4h-32c-19.2 128-121.6 236.8-249.6 249.6v64c0 25.6-12.8 38.4-32 38.4s-38.4-12.8-38.4-38.4v-70.4c-128-19.2-236.8-121.6-249.6-249.6h-32c-19.2 0-38.4-12.8-38.4-38.4s19.2-32 38.4-32zM505.6 787.2c108.8 0 198.4-76.8 217.6-179.2h-435.2c19.2 96 108.8 179.2 217.6 179.2z" />
<glyph unicode="&#xe921;" glyph-name="person" d="M876.8 300.8c-57.6 57.6-121.6 96-192 121.6 76.8 51.2 128 140.8 128 243.2-6.4 160-134.4 294.4-300.8 294.4s-294.4-134.4-294.4-294.4c0-102.4 51.2-192 128-243.2-70.4-25.6-140.8-64-192-121.6-102.4-102.4-153.6-230.4-153.6-364.8h83.2c0 236.8 192 435.2 435.2 435.2s435.2-192 435.2-435.2h70.4c0 134.4-51.2 262.4-147.2 364.8zM512 448c-121.6 0-217.6 96-217.6 217.6s96 211.2 217.6 211.2 217.6-96 217.6-217.6-96-211.2-217.6-211.2z" />
<glyph unicode="&#xe922;" glyph-name="plus" d="M885.76 586.24h-235.52v235.52c0 76.8-61.44 138.24-138.24 138.24s-138.24-61.44-138.24-138.24v-235.52h-235.52c-76.8 0-138.24-61.44-138.24-138.24s61.44-138.24 138.24-138.24h235.52v-235.52c0-76.8 61.44-138.24 138.24-138.24s138.24 61.44 138.24 138.24v235.52h235.52c76.8 0 138.24 61.44 138.24 138.24s-61.44 138.24-138.24 138.24zM885.76 355.84h-281.6v-281.6c0-51.2-40.96-92.16-92.16-92.16s-92.16 40.96-92.16 92.16v281.6h-281.6c-51.2 0-92.16 40.96-92.16 92.16s40.96 92.16 92.16 92.16h281.6v281.6c0 51.2 40.96 92.16 92.16 92.16s92.16-40.96 92.16-92.16v-281.6h281.6c51.2 0 92.16-40.96 92.16-92.16s-40.96-92.16-92.16-92.16z" />
<glyph unicode="&#xe923;" glyph-name="review" horiz-adv-x="975" d="M833.829 565.029l-287.695 4.876 107.276 370.59-507.124-604.648 297.448-4.876-73.143-370.59 463.238 604.648zM307.2 408.99l170.667 204.8-34.133-121.905h238.933l-170.667-224.305 29.257 141.41h-234.057z" />
<glyph unicode="&#xe924;" glyph-name="sanction" d="M256 499.2v-102.4h512v102.4h-224zM876.8 812.8c-102.4 96-230.4 147.2-364.8 147.2s-262.4-51.2-364.8-147.2c-96-102.4-147.2-230.4-147.2-364.8s51.2-262.4 147.2-364.8c102.4-96 230.4-147.2 364.8-147.2s262.4 51.2 364.8 147.2c96 102.4 147.2 230.4 147.2 364.8s-51.2 262.4-147.2 364.8zM512 12.8c-236.8 0-435.2 192-435.2 435.2s192 435.2 435.2 435.2 435.2-192 435.2-435.2-198.4-435.2-435.2-435.2z" />
<glyph unicode="&#xe925;" glyph-name="search" d="M1003.52 43.52l-199.68 199.68c133.12 174.080 117.76 424.96-40.96 583.68-174.080 179.2-455.68 179.2-629.76 0-174.080-174.080-174.080-455.68 0-634.88 158.72-158.72 409.6-174.080 583.68-40.96l199.68-199.68c25.6-25.6 66.56-25.6 92.16 0 20.48 30.72 20.48 66.56-5.12 92.16zM670.72 289.28c-122.88-122.88-327.68-122.88-450.56 0s-122.88 327.68 0 450.56 327.68 122.88 450.56 0c128-128 128-327.68 0-450.56z" />
<glyph unicode="&#xe926;" glyph-name="setting" d="M512 678.4c-128 0-230.4-102.4-230.4-230.4s102.4-230.4 230.4-230.4c128 0 230.4 102.4 230.4 230.4s-102.4 230.4-230.4 230.4zM512 294.4c-81.92 0-153.6 66.56-153.6 153.6 0 81.92 66.56 153.6 153.6 153.6 81.92 0 153.6-66.56 153.6-153.6 0-81.92-71.68-153.6-153.6-153.6zM1024 381.44v133.12l-138.24 35.84c-10.24 30.72-20.48 61.44-35.84 87.040l71.68 122.88-97.28 97.28-122.88-71.68c-25.6 15.36-56.32 30.72-87.040 35.84l-35.84 138.24h-133.12l-35.84-138.24c-30.72-5.12-61.44-20.48-92.16-35.84l-117.76 71.68-97.28-97.28 71.68-122.88c-15.36-25.6-30.72-56.32-35.84-87.040l-138.24-35.84v-133.12l138.24-35.84c10.24-30.72 20.48-61.44 35.84-87.040l-71.68-122.88 97.28-97.28 122.88 71.68c25.6-15.36 56.32-30.72 87.040-35.84l35.84-138.24h133.12l35.84 138.24c30.72 10.24 61.44 20.48 87.040 35.84l122.88-71.68 97.28 97.28-71.68 122.88c15.36 25.6 30.72 56.32 35.84 87.040l138.24 35.84zM819.2 407.040l-5.12-25.6c-10.24-35.84-20.48-71.68-46.080-107.52l-15.36-20.48 61.44-107.52v-5.12l-107.52 61.44-20.48-15.36c-30.72-20.48-66.56-35.84-107.52-46.080h-25.6l-30.72-122.88h-15.36l-35.84 122.88-25.6 5.12c-35.84 10.24-71.68 20.48-107.52 46.080l-20.48 15.36-107.52-66.56-5.12 5.12 61.44 107.52-15.36 20.48c-20.48 30.72-35.84 66.56-46.080 107.52v25.6l-122.88 30.72v15.36l122.88 35.84 5.12 25.6c5.12 35.84 20.48 71.68 40.96 102.4l15.36 20.48-61.44 112.64 5.12 5.12 107.52-61.44 20.48 15.36c35.84 20.48 71.68 35.84 112.64 40.96l20.48 5.12 30.72 122.88h10.24l40.96-122.88 25.6-5.12c35.84-10.24 71.68-20.48 107.52-46.080l20.48-15.36 107.52 66.56 5.12-5.12-61.44-107.52 15.36-20.48c20.48-30.72 35.84-66.56 46.080-107.52v-25.6l122.88-30.72v-10.24l-122.88-40.96z" />
<glyph unicode="&#xe927;" glyph-name="sign-out" d="M834.56 770.56c-61.44 61.44-143.36 107.52-225.28 128v-81.92c168.96-51.2 291.84-209.92 291.84-394.24 0-225.28-184.32-409.6-409.6-409.6s-409.6 184.32-409.6 409.6c0 184.32 122.88 343.040 291.84 394.24v87.040c-87.040-25.6-168.96-66.56-230.4-133.12-92.16-92.16-143.36-215.040-143.36-343.040 0-133.12 51.2-256 143.36-348.16s215.040-143.36 348.16-143.36 256 51.2 348.16 143.36c92.16 92.16 143.36 215.040 143.36 348.16-5.12 128-56.32 250.88-148.48 343.040zM450.56 960h81.92v-552.96h-81.92v552.96z" />
<glyph unicode="&#xe928;" glyph-name="system-log" d="M552.96 222.72c0-22.622-18.338-40.96-40.96-40.96s-40.96 18.338-40.96 40.96c0 22.622 18.338 40.96 40.96 40.96s40.96-18.338 40.96-40.96zM1013.76 212.48l-51.2 424.96c-5.12 61.44-40.96 117.76-87.040 148.48l-10.24 66.56c-5.12 66.56-66.56 112.64-128 107.52-30.72-5.12-61.44-20.48-76.8-40.96-20.48-20.48-25.6-51.2-25.6-81.92v-81.92c-30.72-35.84-46.080-76.8-46.080-128v-87.040c-30.72 10.24-56.32 15.36-76.8 15.36-25.6 0-51.2-5.12-71.68-15.36v87.040c0 51.2-20.48 97.28-51.2 128v76.8c0 30.72-10.24 61.44-25.6 81.92-25.6 25.6-51.2 40.96-81.92 46.080-66.56 5.12-122.88-40.96-133.12-107.52l-5.12-66.56h5.12c-51.2-30.72-81.92-87.040-87.040-143.36v0l-51.2-424.96c-10.24-20.48-10.24-40.96-10.24-56.32 0-122.88 97.28-220.16 220.16-220.16 117.76 0 215.040 92.16 220.16 209.92v0 138.24c20.48 20.48 46.080 30.72 71.68 30.72s51.2-10.24 71.68-30.72v-138.24c5.12-117.76 102.4-209.92 220.16-209.92 122.88 0 220.16 97.28 220.16 220.16-5.12 15.36-5.12 35.84-10.24 51.2zM230.4 842.24v0c0 25.6 20.48 40.96 46.080 35.84 25.6 0 30.72-30.72 30.72-46.080v-25.6c-20.48 5.12-35.84 10.24-56.32 10.24-10.24 0-15.36 0-25.6 0l5.12 25.6zM220.16 17.92c-76.8 0-138.24 61.44-138.24 138.24s61.44 138.24 138.24 138.24c76.8 0 138.24-61.44 138.24-138.24 0-71.68-61.44-138.24-138.24-138.24zM711.68 832c0 15.36 5.12 46.080 35.84 46.080 20.48 0 40.96-15.36 40.96-35.84l5.12-30.72c-5.12 0-15.36 0-20.48 0-20.48 0-40.96-5.12-61.44-10.24v30.72zM798.72 17.92c-76.8 0-138.24 61.44-138.24 138.24s61.44 138.24 138.24 138.24c76.8 0 138.24-61.44 138.24-138.24 5.12-71.68-61.44-138.24-138.24-138.24z" />
<glyph unicode="&#xe929;" glyph-name="system-users" d="M860.16 832c-97.28 15.36-184.32 71.68-230.4 102.4-30.72 15.36-66.56 25.6-97.28 25.6-35.84 0-71.68-10.24-102.4-30.72-46.080-30.72-133.12-81.92-230.4-102.4-56.32-5.12-97.28-56.32-97.28-117.76v-240.64c0-81.92 20.48-158.72 66.56-230.4 35.84-56.32 81.92-112.64 143.36-163.84 102.4-87.040 199.68-128 204.8-133.12l15.36-5.12 15.36 5.12c5.12 0 102.4 46.080 204.8 133.12 61.44 51.2 107.52 107.52 143.36 163.84 46.080 71.68 66.56 153.6 66.56 230.4v240.64c-5.12 61.44-46.080 112.64-102.4 122.88zM880.64 468.48c0-117.76-61.44-230.4-179.2-332.8-66.56-61.44-138.24-97.28-168.96-112.64-30.72 15.36-102.4 56.32-168.96 112.64-117.76 102.4-179.2 215.040-179.2 332.8v240.64c0 20.48 15.36 35.84 30.72 40.96 112.64 20.48 209.92 76.8 261.12 112.64 15.36 10.24 35.84 15.36 51.2 15.36 20.48 0 35.84-5.12 51.2-15.36 51.2-35.84 148.48-92.16 261.12-112.64 20.48-5.12 30.72-20.48 30.72-40.96v-240.64zM552.96 791.040l-20.48 15.36-25.6-15.36c-46.080-35.84-122.88-76.8-215.040-102.4l-30.72-10.24v-209.92c0-51.2 15.36-97.28 46.080-148.48 25.6-40.96 61.44-81.92 107.52-122.88 30.72-25.6 61.44-46.080 97.28-66.56l20.48-15.36 20.48 15.36c35.84 20.48 71.68 46.080 102.4 71.68 46.080 40.96 81.92 81.92 102.4 122.88 25.6 46.080 40.96 97.28 40.96 143.36v209.92l-30.72 10.24c-87.040 25.6-163.84 66.56-215.040 102.4zM716.8 468.48c0-35.84-10.24-71.68-30.72-107.52s-51.2-66.56-87.040-102.4c-20.48-20.48-46.080-35.84-66.56-51.2-20.48 15.36-46.080 30.72-66.56 46.080-40.96 35.84-71.68 66.56-92.16 102.4-20.48 40.96-30.72 76.8-30.72 112.64v148.48c76.8 25.6 138.24 61.44 189.44 87.040 46.080-30.72 112.64-61.44 189.44-87.040v-148.48z" />
<glyph unicode="&#xe92a;" glyph-name="world" d="M875.52 811.52c-97.28 97.28-225.28 148.48-363.52 148.48s-266.24-51.2-363.52-148.48c-97.28-97.28-148.48-225.28-148.48-363.52s51.2-266.24 148.48-363.52c97.28-97.28 225.28-148.48 363.52-148.48s266.24 51.2 363.52 148.48c97.28 97.28 148.48 225.28 148.48 363.52s-51.2 266.24-148.48 363.52zM332.8 842.24c-10.24-15.36-15.36-25.6-25.6-40.96-10.24-25.6-20.48-51.2-30.72-76.8h-97.28c40.96 51.2 92.16 87.040 153.6 117.76zM128 642.56h128c-10.24-51.2-15.36-102.4-20.48-153.6h-153.6c5.12 56.32 20.48 107.52 46.080 153.6zM128 253.44c-25.6 46.080-40.96 102.4-46.080 153.6h153.6c0-56.32 10.24-107.52 20.48-153.6h-128zM179.2 171.52h97.28c10.24-25.6 20.48-51.2 30.72-76.8 5.12-15.36 15.36-30.72 25.6-40.96-61.44 30.72-112.64 66.56-153.6 117.76zM471.040 28.16c-30.72 15.36-66.56 51.2-92.16 107.52-5.12 10.24-10.24 25.6-15.36 40.96h107.52v-148.48zM471.040 253.44h-133.12c-10.24 46.080-20.48 102.4-20.48 153.6h153.6v-153.6zM471.040 488.96h-153.6c0 56.32 10.24 107.52 20.48 153.6h133.12v-153.6zM471.040 724.48h-107.52c5.12 15.36 10.24 25.6 15.36 40.96 25.6 51.2 56.32 87.040 92.16 107.52v-148.48zM896 642.56c25.6-46.080 40.96-102.4 46.080-153.6h-153.6c0 56.32-10.24 107.52-20.48 153.6h128zM844.8 724.48h-97.28c-10.24 25.6-20.48 51.2-30.72 76.8-5.12 15.36-15.36 30.72-25.6 40.96 61.44-30.72 112.64-66.56 153.6-117.76zM552.96 867.84c30.72-15.36 66.56-51.2 92.16-107.52 5.12-10.24 10.24-25.6 15.36-40.96h-107.52v148.48zM552.96 642.56h133.12c10.24-46.080 20.48-102.4 20.48-153.6h-153.6v153.6zM645.12 130.56c-25.6-51.2-56.32-87.040-92.16-107.52v143.36h107.52c-5.12-10.24-10.24-20.48-15.36-35.84zM552.96 253.44v153.6h153.6c0-56.32-10.24-107.52-20.48-153.6h-133.12zM691.2 53.76c10.24 15.36 15.36 25.6 25.6 40.96 10.24 25.6 20.48 51.2 30.72 76.8h97.28c-40.96-51.2-92.16-87.040-153.6-117.76zM896 253.44h-128c10.24 51.2 15.36 102.4 20.48 153.6h153.6c-5.12-56.32-20.48-107.52-46.080-153.6z" />
<glyph unicode="&#xe92b;" glyph-name="wrong" horiz-adv-x="910" d="M910.222 857.6l-45.511 45.511-409.6-409.6-409.6 409.6-45.511-45.511 409.6-409.6-409.6-409.6 45.511-45.511 409.6 409.6 409.6-409.6 45.511 45.511-409.6 409.6z" />
</font>
</defs>
</svg>
